<svg xmlns="http://www.w3.org/2000/svg" xmlns:xlink="http://www.w3.org/1999/xlink" viewBox="0 0 470.98 105.02"><defs><style>.cls-1{fill:#213368;}.cls-2{fill:url(#linear-gradient);}.cls-3{fill:url(#linear-gradient-2);}.cls-4{fill:url(#linear-gradient-3);}.cls-5{fill:#fff;}.cls-6{fill:#666;}.cls-7{fill:none;stroke:#213368;stroke-miterlimit:10;stroke-width:5px;}</style><linearGradient id="linear-gradient" x1="30.28" y1="40.13" x2="111.35" y2="-6.68" gradientTransform="matrix(1, 0, -0.09, 1, -20.47, 0)" gradientUnits="userSpaceOnUse"><stop offset="0" stop-color="#fff"/><stop offset="0.3" stop-color="#ea8b1c"/><stop offset="0.5" stop-color="#ffe600"/><stop offset="0.6" stop-color="#ffe600"/><stop offset="1" stop-color="#ea8b1c"/></linearGradient><linearGradient id="linear-gradient-2" x1="29.8" y1="58.21" x2="110.88" y2="11.4" gradientTransform="matrix(1, 0, -0.09, 1, -15.22, 0)" gradientUnits="userSpaceOnUse"><stop offset="0" stop-color="#fff"/><stop offset="0.3" stop-color="#213368"/><stop offset="0.5" stop-color="#213368"/><stop offset="0.6" stop-color="#0056a2" stop-opacity="0.99"/><stop offset="0.7" stop-color="#0056a2" stop-opacity="0.99"/><stop offset="1" stop-color="#213368"/></linearGradient><linearGradient id="linear-gradient-3" x1="29.33" y1="76.29" x2="110.4" y2="29.48" gradientTransform="matrix(1, 0, -0.09, 1, -9.97, 0)" gradientUnits="userSpaceOnUse"><stop offset="0" stop-color="#fff"/><stop offset="0.4" stop-color="#a60336"/><stop offset="0.5" stop-color="#a60336"/><stop offset="0.7" stop-color="#ec1651"/><stop offset="0.81" stop-color="#ec1651"/><stop offset="1" stop-color="#a60336"/></linearGradient></defs><g id="Layer_2" data-name="Layer 2"><g id="Layer_1-2" data-name="Layer 1"><path class="cls-1" d="M157.1,42.19a25.25,25.25,0,0,1,2-10.83,12.33,12.33,0,0,1,5.93-6A22.88,22.88,0,0,1,175,23.42c1.25,0,2.39,0,3.43.11s2,.16,2.86.3,1.74.3,2.59.51,1.69.44,2.54.71l-2,8.16q-1.58-.41-3-.66c-.94-.16-1.86-.28-2.76-.35s-1.8-.1-2.71-.1a12.3,12.3,0,0,0-3.83.53,5.54,5.54,0,0,0-2.57,1.7,7.33,7.33,0,0,0-1.39,3.07,21.77,21.77,0,0,0-.43,4.74,19.92,19.92,0,0,0,.4,4.36,5.86,5.86,0,0,0,1.4,2.82A5.8,5.8,0,0,0,172,50.84a12.94,12.94,0,0,0,3.75.48,34.1,34.1,0,0,0,4.67-.35c1.66-.24,3.18-.51,4.57-.81l1.87,8c-.88.27-1.76.52-2.66.76a25.9,25.9,0,0,1-2.84.58c-1,.16-2.1.27-3.3.36s-2.53.13-4,.13a25.29,25.29,0,0,1-7.46-1,12.91,12.91,0,0,1-5.32-3.07,12.63,12.63,0,0,1-3.17-5.48A28.11,28.11,0,0,1,157.1,42.19Z"/><path class="cls-1" d="M190.58,59.44V23.93h10.29V59.44Z"/><path class="cls-1" d="M205.79,59.44V23.93h26.68V32.5H216v5.13h15.12v7.86H216v5.43h17.35v8.52Z"/><path class="cls-1" d="M237.14,59.44V23.88h9.74l11.31,19.78V23.93h9.08V59.49h-9.74L246.22,40.32V59.44Z"/><path class="cls-1" d="M271,42.19a25.25,25.25,0,0,1,2-10.83,12.4,12.4,0,0,1,5.94-6,22.88,22.88,0,0,1,9.94-1.91c1.25,0,2.39,0,3.42.11s2,.16,2.87.3,1.74.3,2.59.51,1.69.44,2.53.71l-2,8.16c-1-.27-2-.49-3-.66s-1.87-.28-2.76-.35-1.8-.1-2.72-.1a12.34,12.34,0,0,0-3.83.53,5.51,5.51,0,0,0-2.56,1.7A7.21,7.21,0,0,0,282,37.4a21.77,21.77,0,0,0-.43,4.74,19.92,19.92,0,0,0,.4,4.36,5.86,5.86,0,0,0,1.4,2.82,5.8,5.8,0,0,0,2.56,1.52,12.94,12.94,0,0,0,3.75.48,34.21,34.21,0,0,0,4.67-.35c1.65-.24,3.18-.51,4.56-.81l1.88,8c-.88.27-1.77.52-2.66.76a26.39,26.39,0,0,1-2.84.58c-1,.16-2.1.27-3.3.36s-2.53.13-4,.13a25.29,25.29,0,0,1-7.46-1,13,13,0,0,1-5.33-3.07,12.73,12.73,0,0,1-3.17-5.48A28.45,28.45,0,0,1,271,42.19Z"/><path class="cls-1" d="M304.5,59.44V23.93h10.3V59.44Z"/><path class="cls-1" d="M317.54,59.44l11-35.61H341l11.11,35.61H340.72l-1.42-5.53h-9.59l-1.42,5.53Zm14-14h5.88l-2.89-13.9Z"/><path class="cls-1" d="M375.92,59.44V47.82L363.85,23.93h11.67l5.63,17.6,5.63-17.6h11.51l-12,23.89V59.44Z"/><path class="cls-2" d="M95.81,26.08C63.87,7.84,31.94,47.94,0,27.27c.65-6.61,2-19.9,2-19.9a36.88,36.88,0,0,0,19.33,4.89c25.49-.36,51-22.58,76.48-6.08Q96.78,16.1,95.81,26.08Z"/><path class="cls-3" d="M99,44.16C67.07,25.92,35.13,66,3.19,45.35q1-9.91,2-19.9C37.09,43.69,69,3.59,101,24.26Q100,34.17,99,44.16Z"/><path class="cls-4" d="M102.2,62.24C70.26,44,38.32,84.11,6.39,63.43q1-9.91,2-19.9c31.94,18.24,63.88-21.86,95.81-1.19Q103.18,52.26,102.2,62.24Z"/><polygon class="cls-5" points="46.95 27.74 47.95 29 49.54 28.3 48.57 29.79 49.57 31.05 47.97 30.71 47 32.2 46.98 30.5 45.38 30.15 46.97 29.44 46.95 27.74"/><polygon class="cls-5" points="41.27 31.56 42.68 32.33 43.97 31.11 43.55 32.81 44.95 33.58 43.29 33.86 42.86 35.56 42.25 34.03 40.59 34.31 41.88 33.09 41.27 31.56"/><polygon class="cls-5" points="37.11 36.98 38.73 37.18 39.58 35.62 39.74 37.31 41.36 37.51 39.84 38.35 39.99 40.04 38.89 38.88 37.36 39.72 38.21 38.15 37.11 36.98"/><polygon class="cls-5" points="34.85 43.45 36.49 43.02 36.74 41.29 37.5 42.75 39.14 42.31 37.97 43.65 38.73 45.1 37.25 44.47 36.08 45.81 36.33 44.08 34.85 43.45"/><polygon class="cls-5" points="53.24 26.03 52.74 27.7 51.06 27.89 52.43 28.74 51.93 30.41 53.28 29.27 54.65 30.12 54.11 28.56 55.46 27.41 53.78 27.59 53.24 26.03"/><polygon class="cls-5" points="59.66 26.57 58.63 28 57.05 27.56 57.99 28.89 56.96 30.32 58.57 29.71 59.51 31.04 59.57 29.33 61.18 28.72 59.6 28.27 59.66 26.57"/><polygon class="cls-5" points="65.22 29.35 63.8 30.38 62.52 29.39 62.92 31.01 61.51 32.04 63.17 32.02 63.58 33.64 64.2 32 65.87 31.98 64.59 30.99 65.22 29.35"/><polygon class="cls-5" points="69.37 34.08 67.73 34.53 66.94 33.09 66.72 34.81 65.08 35.26 66.59 35.88 66.37 37.59 67.52 36.25 69.02 36.86 68.22 35.42 69.37 34.08"/><path class="cls-1" d="M4.48,85.06A1.59,1.59,0,0,1,4,85a1.84,1.84,0,0,1-.46-.2,2.92,2.92,0,0,1-.48-.35,6.54,6.54,0,0,1-.5-.53c-.17-.21-.35-.45-.53-.71H1.31V85H0V79.62l.83,0,.7,0h.59a4.84,4.84,0,0,1,1.08.1,2.08,2.08,0,0,1,.74.29,1.19,1.19,0,0,1,.42.52,1.9,1.9,0,0,1,.13.75,2.07,2.07,0,0,1-.14.79,1.33,1.33,0,0,1-.4.53,2.14,2.14,0,0,1-.6.32,5.5,5.5,0,0,0,.37.42,4.07,4.07,0,0,0,.34.3,1.45,1.45,0,0,0,.31.18.67.67,0,0,0,.28.06h.12V85H4.48ZM2.11,82.25a2,2,0,0,0,.46,0,.84.84,0,0,0,.33-.15.51.51,0,0,0,.19-.26,1,1,0,0,0,.07-.41,1.08,1.08,0,0,0-.09-.48.62.62,0,0,0-.31-.26,1.93,1.93,0,0,0-.6-.08H1.31v1.66h.8Z"/><path class="cls-1" d="M5.35,85V79.62H9.2v1.1H6.65v1H9v1H6.65v1.11h2.7V85Z"/><path class="cls-1" d="M10,85V79.6l1,0,.7,0h.43a5.7,5.7,0,0,1,1.2.11A1.59,1.59,0,0,1,14,80a1.26,1.26,0,0,1,.39.6,3.3,3.3,0,0,1,.11.9,3.11,3.11,0,0,1-.11.91A1.36,1.36,0,0,1,14,83a1.51,1.51,0,0,1-.65.36,3.53,3.53,0,0,1-1,.12h-.63l-.2,0h-.29V85Zm1.31-4.39v1.87H12a2.48,2.48,0,0,0,.6,0,.77.77,0,0,0,.36-.18.66.66,0,0,0,.17-.32,1.72,1.72,0,0,0,.05-.49,1.51,1.51,0,0,0,0-.39.71.71,0,0,0-.16-.28.64.64,0,0,0-.31-.15,1.82,1.82,0,0,0-.51-.05h-.89Z"/><path class="cls-1" d="M15,83.24V79.62H16.3v3.64a.94.94,0,0,0,.05.3.52.52,0,0,0,.14.21.6.6,0,0,0,.21.14A.77.77,0,0,0,17,84a1.63,1.63,0,0,0,.31,0,1.69,1.69,0,0,0,.33,0l.27-.08a.75.75,0,0,0,.2-.15.44.44,0,0,0,.13-.21.68.68,0,0,0,.05-.29V79.62h1.29v3.62a2.15,2.15,0,0,1-.1.7,1.58,1.58,0,0,1-.29.51,1.3,1.3,0,0,1-.45.35,2.83,2.83,0,0,1-.64.2,4.79,4.79,0,0,1-.79.06A4.67,4.67,0,0,1,16.5,85a2.91,2.91,0,0,1-.63-.2,1.48,1.48,0,0,1-.47-.35,1.4,1.4,0,0,1-.28-.51A2.15,2.15,0,0,1,15,83.24Zm1.79-4,.67-1.42h1.23l-.95,1.42Z"/><path class="cls-1" d="M20.33,85V79.64c.3,0,.57,0,.83,0l.69,0c.2,0,.4,0,.59,0a4.34,4.34,0,0,1,1.2.13,1.17,1.17,0,0,1,.67.43,1.27,1.27,0,0,1,.2.74,1.3,1.3,0,0,1-.19.73,1.23,1.23,0,0,1-.59.47h0a1.53,1.53,0,0,1,.8.5,1.41,1.41,0,0,1,.27.87,1.92,1.92,0,0,1-.13.76,1.17,1.17,0,0,1-.39.51,1.84,1.84,0,0,1-.72.28,5.78,5.78,0,0,1-1.11.09H21.7l-.34,0-.43,0Zm1.32-3.14h1a.57.57,0,0,0,.61-.61.7.7,0,0,0-.09-.37.47.47,0,0,0-.28-.2,1.74,1.74,0,0,0-.53-.07h-.75Zm0,2.17.23,0h.51a2.85,2.85,0,0,0,.66-.06.6.6,0,0,0,.32-.21.75.75,0,0,0,.09-.39.59.59,0,0,0-.18-.48,1,1,0,0,0-.61-.15h-1Z"/><path class="cls-1" d="M25.39,85V79.62h1.3v4.24H29.1V85Z"/><path class="cls-1" d="M29.66,85V79.62H31V85Z"/><path class="cls-1" d="M31.61,82.38a4,4,0,0,1,.29-1.64,1.88,1.88,0,0,1,.87-.91,3.33,3.33,0,0,1,1.46-.29h.48l.42,0a2.21,2.21,0,0,1,.37.08l.38.1-.26,1-.46-.09-.41,0a2.82,2.82,0,0,0-.41,0,2.06,2.06,0,0,0-.64.09.94.94,0,0,0-.43.29,1.25,1.25,0,0,0-.25.53,3.23,3.23,0,0,0-.09.83,3.1,3.1,0,0,0,.08.74,1.11,1.11,0,0,0,.24.5,1,1,0,0,0,.44.26,1.91,1.91,0,0,0,.62.08,4.51,4.51,0,0,0,.72,0,4.59,4.59,0,0,0,.7-.13l.22,1-.37.11a3,3,0,0,1-.43.09c-.16,0-.32,0-.49.06H34.1A3.54,3.54,0,0,1,33,84.91a1.8,1.8,0,0,1-.78-.46,1.92,1.92,0,0,1-.47-.83A4.43,4.43,0,0,1,31.61,82.38Z"/><path class="cls-1" d="M36.2,85l1.69-5.39h1.57L41.18,85H39.76l-.29-1H37.84l-.29,1Zm1.88-2.06h1.15l-.58-2.32Z"/><path class="cls-1" d="M43.61,85V79.64c.29,0,.56,0,.82,0l.69,0c.21,0,.4,0,.59,0a4.34,4.34,0,0,1,1.2.13,1.17,1.17,0,0,1,.67.43,1.27,1.27,0,0,1,.2.74,1.3,1.3,0,0,1-.19.73A1.23,1.23,0,0,1,47,82h0a1.53,1.53,0,0,1,.8.5,1.41,1.41,0,0,1,.28.87,1.91,1.91,0,0,1-.14.76,1.17,1.17,0,0,1-.39.51,1.84,1.84,0,0,1-.72.28,5.78,5.78,0,0,1-1.11.09H45l-.34,0-.43,0Zm1.31-3.14h1a.57.57,0,0,0,.61-.61.7.7,0,0,0-.09-.37.47.47,0,0,0-.28-.2,1.74,1.74,0,0,0-.53-.07h-.75Zm0,2.17.23,0h.51a2.85,2.85,0,0,0,.66-.06.6.6,0,0,0,.32-.21.75.75,0,0,0,.09-.39.59.59,0,0,0-.18-.48,1,1,0,0,0-.61-.15h-1Z"/><path class="cls-1" d="M50.89,85.06A3.7,3.7,0,0,1,50,85a2.14,2.14,0,0,1-.69-.29,1.56,1.56,0,0,1-.5-.52,2.76,2.76,0,0,1-.31-.78,4.38,4.38,0,0,1-.11-1.08,5,5,0,0,1,.1-1.08,2.14,2.14,0,0,1,.3-.77,1.69,1.69,0,0,1,.51-.52,2,2,0,0,1,.68-.3,3.88,3.88,0,0,1,.87-.09,3.94,3.94,0,0,1,.87.09,2.09,2.09,0,0,1,.68.29,1.66,1.66,0,0,1,.5.52,2.54,2.54,0,0,1,.3.78,4.83,4.83,0,0,1,.1,1.06,5,5,0,0,1-.1,1.09,2.46,2.46,0,0,1-.31.79,2.07,2.07,0,0,1-.5.52,2.14,2.14,0,0,1-.69.29A3.7,3.7,0,0,1,50.89,85.06Zm0-1a1.58,1.58,0,0,0,.38-.05.83.83,0,0,0,.32-.17,1,1,0,0,0,.23-.32A2.38,2.38,0,0,0,52,83a3.8,3.8,0,0,0,.05-.72,3.71,3.71,0,0,0-.05-.7,2.38,2.38,0,0,0-.15-.49.88.88,0,0,0-.23-.32.83.83,0,0,0-.32-.17,1.52,1.52,0,0,0-.38,0,1.46,1.46,0,0,0-.38,0,.83.83,0,0,0-.31.16.88.88,0,0,0-.25.31,2.6,2.6,0,0,0-.15.51,3.76,3.76,0,0,0,0,.71,4.73,4.73,0,0,0,0,.71,1.76,1.76,0,0,0,.16.49.88.88,0,0,0,.23.32.79.79,0,0,0,.31.17A1.6,1.6,0,0,0,50.89,84Z"/><path class="cls-1" d="M54,85V79.62H55.3v4.24h2.41V85Z"/><path class="cls-1" d="M58.26,85V79.62h1.31V85Z"/><path class="cls-1" d="M61.74,85,60,79.62h1.44l1.08,4.23,1.07-4.23H65L63.27,85Z"/><path class="cls-1" d="M64.53,85l1.69-5.39h1.57L69.51,85H68.09l-.29-1H66.17l-.29,1Zm1.88-2.06h1.16L67,80.6Z"/><path class="cls-1" d="M74.45,85.06A1.49,1.49,0,0,1,74,85a1.75,1.75,0,0,1-.47-.2,3.41,3.41,0,0,1-.48-.35,6.54,6.54,0,0,1-.5-.53c-.17-.21-.35-.45-.53-.71h-.72V85H70V79.62l.83,0,.7,0h.59a4.84,4.84,0,0,1,1.08.1,2,2,0,0,1,.74.29,1.19,1.19,0,0,1,.42.52,2.26,2.26,0,0,1,0,1.54,1.33,1.33,0,0,1-.4.53,2.14,2.14,0,0,1-.6.32,5.5,5.5,0,0,0,.37.42,4.07,4.07,0,0,0,.34.3,1.45,1.45,0,0,0,.31.18.71.71,0,0,0,.28.06h.12V85h-.31Zm-2.37-2.81a2.19,2.19,0,0,0,.47,0,.79.79,0,0,0,.32-.15.59.59,0,0,0,.2-.26,1.22,1.22,0,0,0,.06-.41A1.08,1.08,0,0,0,73,80.9a.58.58,0,0,0-.31-.26,1.93,1.93,0,0,0-.6-.08h-.85v1.66h.8Z"/><path class="cls-1" d="M75.32,85V79.62h1.31V85Z"/><path class="cls-1" d="M77.1,85l1.7-5.39h1.56L82.09,85H80.67l-.29-1H78.74l-.29,1ZM79,82.92h1.16l-.58-2.32Z"/><path class="cls-1" d="M82.55,85V79.61h1.23l2,3.38V79.62H87V85H85.74l-2-3.31V85Z"/><path class="cls-1" d="M87.45,85l1.69-5.39h1.57L92.43,85H91l-.29-1H89.09l-.29,1Zm1.88-2.06h1.15L89.9,80.6Z"/><path class="cls-1" d="M96.93,85.06h-.75l-.68,0-.65,0V79.62l.69-.05.65,0h.68a3.51,3.51,0,0,1,1.53.29,1.74,1.74,0,0,1,.84.89,4,4,0,0,1,.27,1.58,3.68,3.68,0,0,1-.29,1.56,1.88,1.88,0,0,1-.85.91A3.21,3.21,0,0,1,96.93,85.06Zm.1-1a1,1,0,0,0,1-.72,3.14,3.14,0,0,0,.13-1,3.57,3.57,0,0,0-.12-1,1,1,0,0,0-.39-.54,1.23,1.23,0,0,0-.67-.16H96.7l-.29,0h-.25V84l.21,0H97Z"/><path class="cls-1" d="M100.16,85V79.62H104v1.1h-2.56v1h2.36v1h-2.36v1.11h2.7V85Z"/><path class="cls-1" d="M4.21,104.84,0,92H3.45L6,102.12,8.59,92H12L7.88,104.84Z"/><path class="cls-1" d="M13,104.84V92h9.22v2.64H16.12v2.42h5.64v2.5H16.12v2.68h6.46v2.61Z"/><path class="cls-1" d="M24,104.84V92H27l4.87,8.1V92h2.75v12.87H31.67l-4.86-7.93v7.91Z"/><path class="cls-1" d="M36.61,104.84V92h9.22v2.64H39.71v2.42h5.64v2.5H39.71v2.68h6.47v2.61Z"/><path class="cls-1" d="M47.11,104.84v-2.48l6.43-7.82v0h-6.1V92h9.81v2.46l-6.32,7.84v0h6.68v2.52Z"/><path class="cls-1" d="M58.81,100.67V92h3.06v8.72a1.92,1.92,0,0,0,.12.71,1.45,1.45,0,0,0,.33.52,1.89,1.89,0,0,0,.51.34,2.47,2.47,0,0,0,.65.19,4.48,4.48,0,0,0,1.52,0,2.48,2.48,0,0,0,.65-.2,1.72,1.72,0,0,0,.48-.34,1.5,1.5,0,0,0,.33-.51,2.23,2.23,0,0,0,.11-.7V92h3.09v8.68a5,5,0,0,1-.25,1.66,3.47,3.47,0,0,1-.69,1.24,3.36,3.36,0,0,1-1.09.83,6.09,6.09,0,0,1-1.51.47,11.3,11.3,0,0,1-1.91.15,10.62,10.62,0,0,1-1.86-.15,6.29,6.29,0,0,1-1.5-.47,3.48,3.48,0,0,1-1.12-.83,3.19,3.19,0,0,1-.69-1.24A5.24,5.24,0,0,1,58.81,100.67Z"/><path class="cls-1" d="M71.53,104.84V92h9.22v2.64H74.63v2.42h5.64v2.5H74.63v2.68H81.1v2.61Z"/><path class="cls-1" d="M82.55,104.84V92h3.12v10.15h5.76v2.7Z"/><path class="cls-1" d="M92.08,104.84l4-12.91h3.75L104,104.84h-3.4l-.69-2.39H96l-.69,2.39Zm4.49-4.94h2.78L98,94.34Z"/><path class="cls-6" d="M156.75,15.85V1h2.44L163.6,8.4,168,1h2.32V15.85h-2.17V4.57l-4.08,6.79H163l-4-6.76V15.85Z"/><path class="cls-6" d="M174.09,2.43A1.67,1.67,0,0,1,173,2.15a1.21,1.21,0,0,1-.32-.94A1.19,1.19,0,0,1,173,.29,1.61,1.61,0,0,1,174.09,0a1.58,1.58,0,0,1,1.06.29,1.19,1.19,0,0,1,.32.92,1.21,1.21,0,0,1-.32.94A1.64,1.64,0,0,1,174.09,2.43Zm-1.17,13.42V4.38h2.32V15.85Z"/><path class="cls-6" d="M177.66,15.85V4.38h2.11v1a11.84,11.84,0,0,1,1.35-.66,8.37,8.37,0,0,1,1.29-.4,6.1,6.1,0,0,1,1.36-.15,3.94,3.94,0,0,1,1.81.37,2.45,2.45,0,0,1,1.08,1.1A3.83,3.83,0,0,1,187,7.36v8.49h-2.29V8a1.93,1.93,0,0,0-.48-1.43,1.92,1.92,0,0,0-1.42-.48,4.47,4.47,0,0,0-1,.1,8.29,8.29,0,0,0-.93.29A10,10,0,0,0,180,7v8.89Z"/><path class="cls-6" d="M190.62,2.43a1.62,1.62,0,0,1-1.06-.28,1.18,1.18,0,0,1-.32-.94,1.16,1.16,0,0,1,.32-.92,2.08,2.08,0,0,1,2.12,0,1.16,1.16,0,0,1,.32.92,1.18,1.18,0,0,1-.32.94A1.62,1.62,0,0,1,190.62,2.43Zm-1.17,13.42V4.38h2.32V15.85Z"/><path class="cls-6" d="M193.43,15.4l.34-1.72a7,7,0,0,0,.8.25c.3.07.62.14,1,.2s.69.1,1,.13.66,0,1,0a3.21,3.21,0,0,0,1.74-.38,1.28,1.28,0,0,0,.56-1.11,1.14,1.14,0,0,0-.19-.68,1.6,1.6,0,0,0-.56-.49,6,6,0,0,0-.93-.41c-.37-.12-.8-.24-1.3-.36a5.54,5.54,0,0,1-1.32-.46,4,4,0,0,1-1-.69,2.55,2.55,0,0,1-.61-.92,3.21,3.21,0,0,1-.2-1.2,3.07,3.07,0,0,1,1.11-2.55,5.23,5.23,0,0,1,3.29-.88,12.46,12.46,0,0,1,1.27.07,9.66,9.66,0,0,1,1.12.21,8.68,8.68,0,0,1,1,.27l-.32,1.75c-.29-.09-.6-.16-.9-.24s-.64-.12-1-.17A10.37,10.37,0,0,0,198.13,6a2.89,2.89,0,0,0-1.63.37,1.18,1.18,0,0,0-.54,1,1.12,1.12,0,0,0,.18.66,1.47,1.47,0,0,0,.53.44,5.66,5.66,0,0,0,.84.33l1.11.32a11.39,11.39,0,0,1,1.43.48,4.68,4.68,0,0,1,1.1.64,2.34,2.34,0,0,1,.71.93,3.41,3.41,0,0,1,.25,1.4,3.81,3.81,0,0,1-.21,1.3,2.48,2.48,0,0,1-.65,1,3.78,3.78,0,0,1-1,.66,5.25,5.25,0,0,1-1.27.4,9,9,0,0,1-1.51.12,13.31,13.31,0,0,1-1.41-.07,11.7,11.7,0,0,1-1.38-.22A9.12,9.12,0,0,1,193.43,15.4Z"/><path class="cls-6" d="M207.64,16.06a3.54,3.54,0,0,1-1.79-.41,2.49,2.49,0,0,1-1.07-1.25,5.55,5.55,0,0,1-.35-2.12V6.09h-1.85V4.57l1.85-.19.3-2.61h2V4.38h3.53V6.11h-3.53v6a2.33,2.33,0,0,0,.4,1.54,1.67,1.67,0,0,0,1.3.46,4.94,4.94,0,0,0,.92-.09,7.8,7.8,0,0,0,1-.23l.32,1.76a13.44,13.44,0,0,1-1.58.39A9.32,9.32,0,0,1,207.64,16.06Z"/><path class="cls-6" d="M216.43,16.06a6.66,6.66,0,0,1-2.2-.33,4.05,4.05,0,0,1-1.62-1,4.3,4.3,0,0,1-1-1.75,8.4,8.4,0,0,1-.34-2.54,9.35,9.35,0,0,1,.41-2.94,5,5,0,0,1,1.15-1.94,4.46,4.46,0,0,1,1.73-1,6.73,6.73,0,0,1,2.15-.33,4.45,4.45,0,0,1,3.41,1.19,5.59,5.59,0,0,1,1.11,3.87c0,.1,0,.25,0,.43s0,.35,0,.51l-1.24.1-1.75.12c-.66,0-1.37.09-2.12.12s-1.56.05-2.4.06a1.11,1.11,0,0,0,0,.19V11a4.17,4.17,0,0,0,.36,1.88,2.21,2.21,0,0,0,1.07,1,4.09,4.09,0,0,0,1.76.33,12.23,12.23,0,0,0,1.33-.07c.46-.05.92-.11,1.36-.19s.87-.17,1.25-.27l.3,1.72a12.3,12.3,0,0,1-1.39.34c-.49.1-1,.18-1.54.24A15.34,15.34,0,0,1,216.43,16.06Zm-2.75-7c.59,0,1.15,0,1.71,0l1.52-.06,1.2-.08.77-.06a5.18,5.18,0,0,0-.28-1.7,1.71,1.71,0,0,0-.77-.94,2.64,2.64,0,0,0-1.3-.28,3.4,3.4,0,0,0-.95.13,2.13,2.13,0,0,0-.86.49,2.74,2.74,0,0,0-.67,1A4.7,4.7,0,0,0,213.68,9Z"/><path class="cls-6" d="M225.22,4.38V5.81a8.65,8.65,0,0,1,1.14-.95,4,4,0,0,1,2.28-.69,7.47,7.47,0,0,1,.8,0,5.17,5.17,0,0,1,.8.18l-.39,2.11a6.33,6.33,0,0,0-.78-.16,6.9,6.9,0,0,0-.75,0,4.11,4.11,0,0,0-1.39.26,5.43,5.43,0,0,0-1.52,1v8.34h-2.3V4.38Z"/><path class="cls-6" d="M232.68,2.43a1.64,1.64,0,0,1-1.06-.28,1.21,1.21,0,0,1-.32-.94,1.19,1.19,0,0,1,.32-.92A1.58,1.58,0,0,1,232.68,0a1.61,1.61,0,0,1,1.07.29,1.19,1.19,0,0,1,.32.92,1.21,1.21,0,0,1-.32.94A1.67,1.67,0,0,1,232.68,2.43Zm-1.17,13.42V4.38h2.32V15.85Z"/><path class="cls-6" d="M235.77,10.11a11.65,11.65,0,0,1,.26-2.6,4.56,4.56,0,0,1,.87-1.84,3.73,3.73,0,0,1,1.59-1.12,8.22,8.22,0,0,1,4.94,0A3.73,3.73,0,0,1,245,5.67a4.56,4.56,0,0,1,.87,1.84,11.65,11.65,0,0,1,.26,2.6,10.32,10.32,0,0,1-.29,2.63,4.6,4.6,0,0,1-.9,1.87,3.66,3.66,0,0,1-1.6,1.09,8.15,8.15,0,0,1-4.79,0A3.69,3.69,0,0,1,237,14.61a4.6,4.6,0,0,1-.9-1.87A10.32,10.32,0,0,1,235.77,10.11Zm2.36,0a8.72,8.72,0,0,0,.29,2.48,2.26,2.26,0,0,0,.92,1.31,3,3,0,0,0,1.62.4,2.9,2.9,0,0,0,1.62-.4,2.28,2.28,0,0,0,.9-1.31,8.72,8.72,0,0,0,.29-2.48,8.9,8.9,0,0,0-.27-2.46,2.21,2.21,0,0,0-.87-1.3A3.06,3.06,0,0,0,241,6a3.15,3.15,0,0,0-1.67.39,2.14,2.14,0,0,0-.89,1.3A8.9,8.9,0,0,0,238.13,10.11Z"/><path class="cls-6" d="M261.07,15.87l-.28-1a8,8,0,0,1-1.81.89,5.76,5.76,0,0,1-1.81.28,3.27,3.27,0,0,1-2.86-1.47,7.51,7.51,0,0,1-1-4.23,9.34,9.34,0,0,1,.56-3.49,4.06,4.06,0,0,1,1.74-2,5.84,5.84,0,0,1,3-.67c.34,0,.69,0,1.07,0a7.53,7.53,0,0,1,1.14.19V.11h2.32V15.87Zm-.3-2.66V6.15a7.16,7.16,0,0,0-1.1-.2,7.72,7.72,0,0,0-.92-.06A3.36,3.36,0,0,0,257,6.3a2.42,2.42,0,0,0-1,1.35,8.21,8.21,0,0,0-.31,2.52,7.63,7.63,0,0,0,.27,2.2,2.67,2.67,0,0,0,.8,1.31,1.92,1.92,0,0,0,1.27.43,4.26,4.26,0,0,0,.86-.09,3.49,3.49,0,0,0,.88-.29A8,8,0,0,0,260.77,13.21Z"/><path class="cls-6" d="M270.19,16.06a6.7,6.7,0,0,1-2.2-.33,4,4,0,0,1-1.61-1,4.31,4.31,0,0,1-1-1.75,8.73,8.73,0,0,1-.34-2.54,9,9,0,0,1,.42-2.94,5,5,0,0,1,1.15-1.94,4.42,4.42,0,0,1,1.72-1,6.79,6.79,0,0,1,2.16-.33,4.47,4.47,0,0,1,3.41,1.19A5.64,5.64,0,0,1,275,9.23c0,.1,0,.25,0,.43l0,.51-1.25.1-1.74.12q-1,.07-2.13.12c-.76,0-1.55.05-2.39.06a.58.58,0,0,0,0,.19V11a4.17,4.17,0,0,0,.36,1.88,2.19,2.19,0,0,0,1.06,1,4.17,4.17,0,0,0,1.77.33,12.36,12.36,0,0,0,1.33-.07c.46-.05.91-.11,1.36-.19s.86-.17,1.24-.27l.3,1.72a11.61,11.61,0,0,1-1.38.34c-.5.1-1,.18-1.54.24A15.52,15.52,0,0,1,270.19,16.06Zm-2.74-7c.58,0,1.15,0,1.7,0l1.52-.06,1.21-.08.76-.06a4.93,4.93,0,0,0-.28-1.7,1.7,1.7,0,0,0-.76-.94,2.64,2.64,0,0,0-1.3-.28,3.47,3.47,0,0,0-1,.13,2.13,2.13,0,0,0-.86.49,3,3,0,0,0-.67,1A5,5,0,0,0,267.45,9Z"/><path class="cls-6" d="M279.17.11V12.43a2.82,2.82,0,0,0,.15,1,.79.79,0,0,0,.42.47,1.47,1.47,0,0,0,.56.1,2.77,2.77,0,0,0,.49,0,4.77,4.77,0,0,0,.55-.13l.24,1.79a3.58,3.58,0,0,1-.89.3,4.93,4.93,0,0,1-1,.1,3.44,3.44,0,0,1-1.51-.3,2.12,2.12,0,0,1-1-1.07,5.24,5.24,0,0,1-.34-2.07V.11Z"/><path class="cls-6" d="M288.66,15.85V.94c.9-.06,1.68-.1,2.34-.13s1.23-.05,1.68-.05l1.07,0a14.71,14.71,0,0,1,3.1.28,4.49,4.49,0,0,1,1.93.87,3.24,3.24,0,0,1,1,1.56,8.3,8.3,0,0,1,.29,2.34,8.62,8.62,0,0,1-.31,2.42,3.68,3.68,0,0,1-1,1.65,4.25,4.25,0,0,1-1.75.94,9.69,9.69,0,0,1-2.6.31h-1.35l-.56,0-.64,0-.81,0v4.83Zm2.39-13.13V9.13h.73l.64,0h1.29A8.58,8.58,0,0,0,295.65,9a2.48,2.48,0,0,0,1.18-.59,2.22,2.22,0,0,0,.62-1.07,5.83,5.83,0,0,0,.19-1.61,4.72,4.72,0,0,0-.18-1.4,2.22,2.22,0,0,0-.57-1,2.5,2.5,0,0,0-1.12-.55,7.73,7.73,0,0,0-1.83-.18h-.54l-.59,0-.75,0Z"/><path class="cls-6" d="M301.09,10.11a11.65,11.65,0,0,1,.26-2.6,4.56,4.56,0,0,1,.87-1.84,3.73,3.73,0,0,1,1.59-1.12,8.22,8.22,0,0,1,4.94,0,3.73,3.73,0,0,1,1.59,1.12,4.56,4.56,0,0,1,.87,1.84,11.65,11.65,0,0,1,.26,2.6,10.32,10.32,0,0,1-.29,2.63,4.6,4.6,0,0,1-.9,1.87,3.66,3.66,0,0,1-1.6,1.09,8.15,8.15,0,0,1-4.79,0,3.69,3.69,0,0,1-1.61-1.09,4.6,4.6,0,0,1-.9-1.87A10.32,10.32,0,0,1,301.09,10.11Zm2.36,0a8.72,8.72,0,0,0,.29,2.48,2.26,2.26,0,0,0,.92,1.31,3,3,0,0,0,1.62.4,2.9,2.9,0,0,0,1.62-.4,2.28,2.28,0,0,0,.9-1.31,8.72,8.72,0,0,0,.29-2.48,8.9,8.9,0,0,0-.27-2.46,2.21,2.21,0,0,0-.87-1.3A3.06,3.06,0,0,0,306.28,6a3.15,3.15,0,0,0-1.67.39,2.14,2.14,0,0,0-.89,1.3A8.9,8.9,0,0,0,303.45,10.11Z"/><path class="cls-6" d="M320.68,15.87l-.27-1a8.16,8.16,0,0,1-1.81.89,5.8,5.8,0,0,1-1.81.28,3.27,3.27,0,0,1-2.86-1.47,7.51,7.51,0,0,1-1-4.23,9.34,9.34,0,0,1,.56-3.49,4.06,4.06,0,0,1,1.74-2,5.83,5.83,0,0,1,2.95-.67c.34,0,.7,0,1.08,0a8,8,0,0,1,1.14.19V.11h2.32V15.87Zm-.29-2.66V6.15a7.38,7.38,0,0,0-1.1-.2,7.72,7.72,0,0,0-.92-.06,3.36,3.36,0,0,0-1.73.41,2.38,2.38,0,0,0-1,1.35,8.17,8.17,0,0,0-.32,2.52,7.27,7.27,0,0,0,.28,2.2,2.6,2.6,0,0,0,.8,1.31,1.89,1.89,0,0,0,1.26.43,4.36,4.36,0,0,0,.87-.09,3.49,3.49,0,0,0,.88-.29A8,8,0,0,0,320.39,13.21Z"/><path class="cls-6" d="M329.81,16.06a6.7,6.7,0,0,1-2.2-.33,4.12,4.12,0,0,1-1.62-1A4.41,4.41,0,0,1,325,13a8.73,8.73,0,0,1-.34-2.54,9,9,0,0,1,.42-2.94,4.86,4.86,0,0,1,1.15-1.94,4.42,4.42,0,0,1,1.72-1,6.79,6.79,0,0,1,2.16-.33,4.43,4.43,0,0,1,3.4,1.19,5.59,5.59,0,0,1,1.11,3.87c0,.1,0,.25,0,.43l0,.51-1.25.1-1.74.12q-1,.07-2.13.12c-.76,0-1.56.05-2.39.06a.58.58,0,0,0,0,.19V11a4.16,4.16,0,0,0,.37,1.88,2.19,2.19,0,0,0,1.06,1,4.17,4.17,0,0,0,1.77.33,12.36,12.36,0,0,0,1.33-.07c.46-.05.91-.11,1.36-.19s.86-.17,1.24-.27l.3,1.72a12.11,12.11,0,0,1-1.38.34c-.5.1-1,.18-1.54.24A15.64,15.64,0,0,1,329.81,16.06Zm-2.74-7c.58,0,1.15,0,1.7,0l1.52-.06,1.2-.08.77-.06a5.18,5.18,0,0,0-.28-1.7,1.7,1.7,0,0,0-.76-.94,2.66,2.66,0,0,0-1.3-.28A3.42,3.42,0,0,0,329,6a2.13,2.13,0,0,0-.86.49,2.87,2.87,0,0,0-.67,1A4.48,4.48,0,0,0,327.07,9Z"/><path class="cls-6" d="M338.6,4.38V5.81a8.08,8.08,0,0,1,1.15-.95,4.18,4.18,0,0,1,1.09-.52A4.23,4.23,0,0,1,342,4.17a7.29,7.29,0,0,1,.79,0,4.92,4.92,0,0,1,.8.18l-.38,2.11a5.85,5.85,0,0,0-1.53-.21,4.16,4.16,0,0,0-1.4.26,5.58,5.58,0,0,0-1.52,1v8.34h-2.3V4.38Z"/><path class="cls-6" d="M350.79,15.85V.94c.89-.06,1.67-.1,2.34-.13s1.23-.05,1.68-.05l1.07,0A14.78,14.78,0,0,1,359,1a4.49,4.49,0,0,1,1.93.87,3.24,3.24,0,0,1,1,1.56,8.33,8.33,0,0,1,.28,2.34,8.65,8.65,0,0,1-.3,2.42,3.77,3.77,0,0,1-1,1.65,4.25,4.25,0,0,1-1.75.94,9.69,9.69,0,0,1-2.6.31h-1.36l-.55,0L354,11l-.82,0v4.83Zm2.38-13.13V9.13h.74l.64,0h1.28A8.61,8.61,0,0,0,357.78,9,2.53,2.53,0,0,0,359,8.4a2.3,2.3,0,0,0,.62-1.07,5.83,5.83,0,0,0,.19-1.61,4.72,4.72,0,0,0-.18-1.4,2.15,2.15,0,0,0-.58-1,2.41,2.41,0,0,0-1.11-.55,7.73,7.73,0,0,0-1.83-.18h-.54l-.59,0-.76,0Z"/><path class="cls-6" d="M363.22,10.11a11.65,11.65,0,0,1,.26-2.6,4.69,4.69,0,0,1,.86-1.84,3.76,3.76,0,0,1,1.6-1.12,8.22,8.22,0,0,1,4.94,0,3.73,3.73,0,0,1,1.59,1.12,4.43,4.43,0,0,1,.86,1.84,11,11,0,0,1,.27,2.6,10.79,10.79,0,0,1-.29,2.63,4.6,4.6,0,0,1-.9,1.87,3.66,3.66,0,0,1-1.6,1.09,7,7,0,0,1-2.4.36,7.05,7.05,0,0,1-2.4-.36,3.72,3.72,0,0,1-1.6-1.09,4.74,4.74,0,0,1-.91-1.87A10.82,10.82,0,0,1,363.22,10.11Zm2.36,0a8.37,8.37,0,0,0,.29,2.48,2.26,2.26,0,0,0,.92,1.31,3,3,0,0,0,1.62.4,2.92,2.92,0,0,0,1.62-.4,2.28,2.28,0,0,0,.9-1.31,8.72,8.72,0,0,0,.29-2.48A8.9,8.9,0,0,0,371,7.65a2.25,2.25,0,0,0-.87-1.3A3.08,3.08,0,0,0,368.41,6a3.13,3.13,0,0,0-1.67.39,2.2,2.2,0,0,0-.9,1.3A9.36,9.36,0,0,0,365.58,10.11Z"/><path class="cls-6" d="M375.54,20.32v-16h2.1l.07,1.08a8.46,8.46,0,0,1,1.9-.92,5.76,5.76,0,0,1,1.86-.31,3.21,3.21,0,0,1,2.85,1.48,7.48,7.48,0,0,1,1,4.22,9.12,9.12,0,0,1-.57,3.49,4.05,4.05,0,0,1-1.73,2,5.83,5.83,0,0,1-2.95.67,9.47,9.47,0,0,1-1-.06c-.37,0-.76-.1-1.17-.17v4.49Zm4.34-6a3.28,3.28,0,0,0,1.71-.41,2.54,2.54,0,0,0,1-1.36,7.65,7.65,0,0,0,.34-2.53,7.35,7.35,0,0,0-.28-2.23,2.72,2.72,0,0,0-.79-1.3,2,2,0,0,0-1.29-.42,4.94,4.94,0,0,0-.87.08,3.94,3.94,0,0,0-.88.29,7,7,0,0,0-1,.54v7.07c.39.08.76.15,1.09.2A6.19,6.19,0,0,0,379.88,14.36Z"/><path class="cls-6" d="M390.45,16.06a3.73,3.73,0,0,1-1.69-.36,2.6,2.6,0,0,1-1.12-1.06,3.57,3.57,0,0,1-.4-1.79V4.38h2.3v8a1.75,1.75,0,0,0,.46,1.32,1.88,1.88,0,0,0,1.35.45,4.56,4.56,0,0,0,.92-.09,3.55,3.55,0,0,0,.89-.29c.31-.13.62-.28.93-.43V4.38h2.28V13a1.62,1.62,0,0,0,.1.64.73.73,0,0,0,.27.34.63.63,0,0,0,.35.11.94.94,0,0,0,.53-.15l.24,1.68-.49.21a2.38,2.38,0,0,1-.57.16,3.36,3.36,0,0,1-.65,0,2,2,0,0,1-1.09-.3,1.82,1.82,0,0,1-.71-.91,13.32,13.32,0,0,1-1.24.64,7.13,7.13,0,0,1-1.28.43A6.87,6.87,0,0,1,390.45,16.06Z"/><path class="cls-6" d="M401.47.11V12.43a2.82,2.82,0,0,0,.15,1,.79.79,0,0,0,.42.47,1.47,1.47,0,0,0,.56.1,2.77,2.77,0,0,0,.49,0,4.77,4.77,0,0,0,.55-.13l.24,1.79a3.58,3.58,0,0,1-.89.3,4.93,4.93,0,0,1-1,.1,3.44,3.44,0,0,1-1.51-.3,2.12,2.12,0,0,1-1-1.07,5.24,5.24,0,0,1-.34-2.07V.11Z"/><path class="cls-6" d="M404.49,13a3.05,3.05,0,0,1,.44-1.71,3,3,0,0,1,1.28-1.07,8.23,8.23,0,0,1,2.1-.61q1.28-.23,3-.36V7.92a1.54,1.54,0,0,0-.59-1.32,3,3,0,0,0-1.79-.45c-.29,0-.61,0-1,0s-.75.08-1.14.15a11.47,11.47,0,0,0-1.2.28l-.4-1.83a13.22,13.22,0,0,1,1.95-.46,11.88,11.88,0,0,1,1.9-.16,6.75,6.75,0,0,1,2.58.42,3,3,0,0,1,1.5,1.24,3.9,3.9,0,0,1,.49,2v5.07a1.45,1.45,0,0,0,.2.89.62.62,0,0,0,.5.23l.27,0a1.23,1.23,0,0,0,.29-.09l.21,1.7a3.58,3.58,0,0,1-.75.31,3.45,3.45,0,0,1-.87.11,2,2,0,0,1-1.29-.38,2.1,2.1,0,0,1-.67-1.15,13,13,0,0,1-1.12.77,5.28,5.28,0,0,1-1.31.56,5.58,5.58,0,0,1-1.57.2,3.29,3.29,0,0,1-1.2-.2,2.44,2.44,0,0,1-.94-.6,2.9,2.9,0,0,1-.63-1A3.52,3.52,0,0,1,404.49,13Zm2.37-.17a1.67,1.67,0,0,0,.4,1.23,1.47,1.47,0,0,0,1.09.41,3.87,3.87,0,0,0,1-.16,5.19,5.19,0,0,0,1-.45,3.43,3.43,0,0,0,.86-.69v-2.6c-.67.06-1.27.13-1.82.22a6.13,6.13,0,0,0-1.41.37,2,2,0,0,0-.9.66A1.65,1.65,0,0,0,406.86,12.81Z"/><path class="cls-6" d="M418.52,4.38V5.81a8.65,8.65,0,0,1,1.14-.95,4,4,0,0,1,2.28-.69,7.47,7.47,0,0,1,.8,0,5.17,5.17,0,0,1,.8.18l-.39,2.11a6.33,6.33,0,0,0-.78-.16,6.9,6.9,0,0,0-.75,0,4.11,4.11,0,0,0-1.39.26,5.43,5.43,0,0,0-1.52,1v8.34h-2.3V4.38Z"/><path class="cls-6" d="M430.51,20.32v-16h2.11l.07,1.08a8.46,8.46,0,0,1,1.9-.92,5.76,5.76,0,0,1,1.86-.31,3.21,3.21,0,0,1,2.85,1.48,7.48,7.48,0,0,1,1,4.22,9.12,9.12,0,0,1-.57,3.49,4.07,4.07,0,0,1-1.74,2,5.76,5.76,0,0,1-2.94.67A9.79,9.79,0,0,1,434,16c-.36,0-.75-.1-1.17-.17v4.49Zm4.35-6a3.28,3.28,0,0,0,1.71-.41,2.59,2.59,0,0,0,1-1.36,7.65,7.65,0,0,0,.34-2.53,7.35,7.35,0,0,0-.28-2.23,2.66,2.66,0,0,0-.8-1.3,2,2,0,0,0-1.28-.42,4.94,4.94,0,0,0-.87.08,3.94,3.94,0,0,0-.88.29,7.73,7.73,0,0,0-1,.54v7.07l1.1.2A6.19,6.19,0,0,0,434.86,14.36Z"/><path class="cls-6" d="M441.35,13a3.05,3.05,0,0,1,.43-1.71,3,3,0,0,1,1.28-1.07,8.23,8.23,0,0,1,2.1-.61q1.27-.23,3-.36V7.92a1.54,1.54,0,0,0-.59-1.32,3,3,0,0,0-1.79-.45c-.28,0-.61,0-1,0s-.75.08-1.14.15a11.47,11.47,0,0,0-1.2.28L442,4.79a13.22,13.22,0,0,1,2-.46,11.88,11.88,0,0,1,1.9-.16,6.75,6.75,0,0,1,2.58.42A2.92,2.92,0,0,1,450,5.83a3.9,3.9,0,0,1,.49,2v5.07a1.45,1.45,0,0,0,.2.89.62.62,0,0,0,.5.23l.27,0a1.23,1.23,0,0,0,.29-.09l.21,1.7a3.58,3.58,0,0,1-.75.31,3.4,3.4,0,0,1-.87.11,1.94,1.94,0,0,1-1.28-.38,2,2,0,0,1-.67-1.15c-.36.27-.74.53-1.13.77a5.28,5.28,0,0,1-1.31.56,5.58,5.58,0,0,1-1.57.2,3.32,3.32,0,0,1-1.2-.2,2.52,2.52,0,0,1-.94-.6,2.9,2.9,0,0,1-.63-1A3.53,3.53,0,0,1,441.35,13Zm2.36-.17a1.67,1.67,0,0,0,.4,1.23,1.47,1.47,0,0,0,1.09.41,3.87,3.87,0,0,0,1-.16,5.19,5.19,0,0,0,1-.45,3.43,3.43,0,0,0,.86-.69v-2.6c-.66.06-1.27.13-1.82.22a6.13,6.13,0,0,0-1.41.37,2,2,0,0,0-.9.66A1.72,1.72,0,0,0,443.71,12.81Z"/><path class="cls-6" d="M455.37,4.38V5.81a8.65,8.65,0,0,1,1.14-.95,4,4,0,0,1,2.28-.69,7.47,7.47,0,0,1,.8,0,5.17,5.17,0,0,1,.8.18L460,6.51a6.33,6.33,0,0,0-.78-.16,6.9,6.9,0,0,0-.75,0,4.11,4.11,0,0,0-1.39.26,5.43,5.43,0,0,0-1.52,1v8.34h-2.3V4.38Z"/><path class="cls-6" d="M460.41,13a3.05,3.05,0,0,1,.43-1.71,3,3,0,0,1,1.28-1.07,8.19,8.19,0,0,1,2.11-.61q1.26-.23,3-.36V7.92a1.52,1.52,0,0,0-.6-1.32,3,3,0,0,0-1.79-.45c-.28,0-.61,0-1,0s-.74.08-1.13.15a11.64,11.64,0,0,0-1.21.28l-.4-1.83a13.35,13.35,0,0,1,2-.46,11.85,11.85,0,0,1,1.89-.16,6.84,6.84,0,0,1,2.59.42A3,3,0,0,1,469,5.83a4,4,0,0,1,.48,2v5.07a1.38,1.38,0,0,0,.21.89.61.61,0,0,0,.5.23l.26,0a1.1,1.1,0,0,0,.29-.09l.21,1.7a3.29,3.29,0,0,1-.74.31,3.45,3.45,0,0,1-.87.11,2,2,0,0,1-1.29-.38,2,2,0,0,1-.67-1.15,13.18,13.18,0,0,1-1.13.77,5.13,5.13,0,0,1-1.31.56,5.46,5.46,0,0,1-1.56.2,3.29,3.29,0,0,1-1.2-.2,2.48,2.48,0,0,1-.95-.6,2.9,2.9,0,0,1-.63-1A3.53,3.53,0,0,1,460.41,13Zm2.36-.17a1.67,1.67,0,0,0,.4,1.23,1.49,1.49,0,0,0,1.09.41,3.81,3.81,0,0,0,1-.16,5,5,0,0,0,1-.45,3.49,3.49,0,0,0,.87-.69v-2.6c-.67.06-1.28.13-1.82.22a6.22,6.22,0,0,0-1.42.37,1.93,1.93,0,0,0-.89.66A1.66,1.66,0,0,0,462.77,12.81Z"/><line class="cls-7" x1="130.53" y1="0.09" x2="130.53" y2="104.84"/><path class="cls-1" d="M187.53,75H177.34v26.43H167V75h-10.3V66h30.84Z"/><path class="cls-1" d="M190.93,101.47V66h26.68v8.58H201.18v5.12h15.11v7.86H201.18V93h17.35v8.52Z"/><path class="cls-1" d="M220.45,84.22a25.25,25.25,0,0,1,2-10.83,12.44,12.44,0,0,1,5.94-6,22.85,22.85,0,0,1,9.94-1.9c1.25,0,2.39,0,3.42.1s2,.17,2.87.3,1.74.31,2.59.51,1.69.44,2.53.71l-2,8.17c-1.05-.27-2-.49-3-.66s-1.87-.29-2.76-.36-1.81-.1-2.72-.1a12.34,12.34,0,0,0-3.83.53,5.51,5.51,0,0,0-2.56,1.7,7.34,7.34,0,0,0-1.4,3.07,22.42,22.42,0,0,0-.43,4.74,20,20,0,0,0,.41,4.37,6,6,0,0,0,1.39,2.81,5.84,5.84,0,0,0,2.57,1.52,12.9,12.9,0,0,0,3.75.48,32.69,32.69,0,0,0,4.67-.35q2.47-.36,4.56-.81l1.88,8c-.88.27-1.77.53-2.66.76s-1.85.43-2.84.59-2.1.27-3.3.35-2.53.13-4,.13a25.29,25.29,0,0,1-7.46-1,13,13,0,0,1-5.33-3.07,12.73,12.73,0,0,1-3.17-5.48A28.4,28.4,0,0,1,220.45,84.22Z"/><path class="cls-1" d="M253.93,101.47V65.91h9.74L275,85.7V66h9.08v35.56h-9.74L263,82.35v19.12Z"/><path class="cls-1" d="M304.5,102a26,26,0,0,1-5.88-.61,14.31,14.31,0,0,1-4.67-2,11.39,11.39,0,0,1-3.37-3.5,17.47,17.47,0,0,1-2.08-5.18,29.83,29.83,0,0,1-.74-7,31.12,31.12,0,0,1,.69-7,17.19,17.19,0,0,1,2-5.15,11.61,11.61,0,0,1,3.35-3.55,13.58,13.58,0,0,1,4.67-2,27.28,27.28,0,0,1,6-.6,27.76,27.76,0,0,1,6,.6,13.43,13.43,0,0,1,4.67,2,11.41,11.41,0,0,1,3.27,3.5,17.4,17.4,0,0,1,2,5.1,31.51,31.51,0,0,1,.68,6.93,33.35,33.35,0,0,1-.68,7.12,16.56,16.56,0,0,1-2,5.2,11.92,11.92,0,0,1-3.35,3.5,13.67,13.67,0,0,1-4.67,2A26.24,26.24,0,0,1,304.5,102Zm0-8.12a8,8,0,0,0,2.21-.28,3.65,3.65,0,0,0,1.7-1,6.55,6.55,0,0,0,1.22-1.9,11.19,11.19,0,0,0,.73-2.92,36.39,36.39,0,0,0,0-8.17,10.84,10.84,0,0,0-.73-2.89,6.13,6.13,0,0,0-1.22-1.85,4,4,0,0,0-1.7-1,8,8,0,0,0-4.41,0,4.43,4.43,0,0,0-1.73,1,5.55,5.55,0,0,0-1.24,1.86,11.08,11.08,0,0,0-.74,2.91,39.44,39.44,0,0,0,0,8.32,11.16,11.16,0,0,0,.74,2.92,4.88,4.88,0,0,0,1.27,1.82,4.37,4.37,0,0,0,1.75.94A7.71,7.71,0,0,0,304.5,93.86Z"/><path class="cls-1" d="M324.84,101.47V66h10.35V92.49h15.42v9Z"/><path class="cls-1" d="M368.87,102a26,26,0,0,1-5.88-.61,14.4,14.4,0,0,1-4.67-2,11.5,11.5,0,0,1-3.37-3.5,17.47,17.47,0,0,1-2.08-5.18,29.83,29.83,0,0,1-.74-7,31.12,31.12,0,0,1,.69-7,17.19,17.19,0,0,1,2-5.15,11.61,11.61,0,0,1,3.35-3.55,13.58,13.58,0,0,1,4.67-2,27.35,27.35,0,0,1,6-.6,27.76,27.76,0,0,1,6,.6,13.43,13.43,0,0,1,4.67,2,11.41,11.41,0,0,1,3.27,3.5,17.4,17.4,0,0,1,2,5.1,31.51,31.51,0,0,1,.68,6.93,33.35,33.35,0,0,1-.68,7.12,16.56,16.56,0,0,1-2,5.2,11.79,11.79,0,0,1-3.35,3.5,13.67,13.67,0,0,1-4.67,2A26.24,26.24,0,0,1,368.87,102Zm0-8.12a8,8,0,0,0,2.21-.28,3.65,3.65,0,0,0,1.7-1,6.55,6.55,0,0,0,1.22-1.9,11.19,11.19,0,0,0,.73-2.92,36.39,36.39,0,0,0,0-8.17,10.84,10.84,0,0,0-.73-2.89,6.13,6.13,0,0,0-1.22-1.85,4,4,0,0,0-1.7-1,8,8,0,0,0-4.41,0,4.43,4.43,0,0,0-1.73,1,5.55,5.55,0,0,0-1.24,1.86,11.08,11.08,0,0,0-.74,2.91,39.44,39.44,0,0,0,0,8.32,11.16,11.16,0,0,0,.74,2.92A4.88,4.88,0,0,0,365,92.64a4.44,4.44,0,0,0,1.75.94A7.77,7.77,0,0,0,368.87,93.86Z"/><path class="cls-1" d="M388,84.17a24.92,24.92,0,0,1,1.92-10.47,12.93,12.93,0,0,1,5.91-6.19,21.64,21.64,0,0,1,10-2.05c1.18,0,2.3,0,3.35.1s2.06.17,3,.3,1.94.31,2.87.51,1.83.44,2.71.71l-1.87,8.17q-2.38-.51-4.8-.84a32.52,32.52,0,0,0-4.39-.33A9.35,9.35,0,0,0,402,75.14a6.16,6.16,0,0,0-2.67,3.33,17.35,17.35,0,0,0-.83,5.86,17,17,0,0,0,.76,5.65,5.27,5.27,0,0,0,2.33,3,7.77,7.77,0,0,0,3.91.89,22.71,22.71,0,0,0,2.43-.12,12.39,12.39,0,0,0,2-.39V88.64h-5.12V80.72h14.35V99a28.07,28.07,0,0,1-6.85,2.23,43.1,43.1,0,0,1-8.06.71,19.05,19.05,0,0,1-9.08-1.93,11.88,11.88,0,0,1-5.35-5.86A24.7,24.7,0,0,1,388,84.17Z"/><path class="cls-1" d="M423.4,101.47V66h10.3v35.51Zm1.37-37.74,4-9.69h9.79l-6.39,9.69Z"/><path class="cls-1" d="M436.44,101.47l11-35.61h12.47L471,101.47H459.62l-1.42-5.53h-9.59l-1.42,5.53Zm14.05-14h5.88l-2.89-13.9Z"/></g></g></svg>