<svg xmlns="http://www.w3.org/2000/svg" xmlns:xlink="http://www.w3.org/1999/xlink" viewBox="0 0 2190 113.05"><defs><style>.cls-1{fill:#1e396c;}.cls-2{fill:#fff;}.cls-3{fill:url(#linear-gradient);}.cls-4{fill:url(#linear-gradient-2);}.cls-5{fill:url(#linear-gradient-3);}.cls-6{fill:none;stroke:#213368;stroke-miterlimit:10;stroke-width:5px;}</style><linearGradient id="linear-gradient" x1="165.67" y1="51.35" x2="206.12" y2="28" gradientTransform="matrix(1, 0, -0.09, 1, -13.67, 0)" gradientUnits="userSpaceOnUse"><stop offset="0" stop-color="#1e396c"/><stop offset="0.3" stop-color="#ea8b1c"/><stop offset="0.5" stop-color="#ffe600"/><stop offset="0.6" stop-color="#ffe600"/><stop offset="1" stop-color="#ea8b1c"/></linearGradient><linearGradient id="linear-gradient-2" x1="162.81" y1="60.37" x2="203.25" y2="37.02" gradientTransform="matrix(1, 0, -0.09, 1, -8.42, 0)" gradientUnits="userSpaceOnUse"><stop offset="0" stop-color="#1e396c"/><stop offset="0.3" stop-color="#213368"/><stop offset="0.5" stop-color="#213368"/><stop offset="0.6" stop-color="#0056a2" stop-opacity="0.99"/><stop offset="0.7" stop-color="#0056a2" stop-opacity="0.99"/><stop offset="1" stop-color="#213368"/></linearGradient><linearGradient id="linear-gradient-3" x1="159.94" y1="69.39" x2="200.38" y2="46.04" gradientTransform="matrix(1, 0, -0.09, 1, -3.17, 0)" gradientUnits="userSpaceOnUse"><stop offset="0" stop-color="#1e396c"/><stop offset="0.4" stop-color="#a60336"/><stop offset="0.5" stop-color="#a60336"/><stop offset="0.7" stop-color="#ec1651"/><stop offset="0.81" stop-color="#ec1651"/><stop offset="1" stop-color="#a60336"/></linearGradient></defs><g id="Layer_2" data-name="Layer 2"><g id="Layer_1-2" data-name="Layer 1"><rect class="cls-1" width="2190" height="113.05"/><path class="cls-2" d="M222.74,53a12.52,12.52,0,0,1,1-5.4,6.11,6.11,0,0,1,3-3,11.42,11.42,0,0,1,5-1c.62,0,1.19,0,1.7,0a14.31,14.31,0,0,1,1.43.15c.44.07.87.15,1.29.25s.85.22,1.27.36l-1,4.07c-.53-.13-1-.24-1.5-.33a13.67,13.67,0,0,0-1.38-.17c-.44,0-.89-.05-1.35-.05a6,6,0,0,0-1.91.26,2.76,2.76,0,0,0-1.28.85,3.61,3.61,0,0,0-.69,1.53A10.49,10.49,0,0,0,228,53a10.21,10.21,0,0,0,.2,2.17,3,3,0,0,0,.7,1.41,2.92,2.92,0,0,0,1.28.76,6.39,6.39,0,0,0,1.87.24,16.26,16.26,0,0,0,2.33-.18c.82-.12,1.58-.25,2.28-.41l.93,4-1.33.38c-.44.11-.92.21-1.41.29s-1,.13-1.65.17-1.26.07-2,.07a12.54,12.54,0,0,1-3.72-.5,6,6,0,0,1-4.24-4.26A14,14,0,0,1,222.74,53Z"/><path class="cls-2" d="M239.44,61.57V43.86h5.14V61.57Z"/><path class="cls-2" d="M247,61.57V43.86h13.31v4.28h-8.2v2.55h7.54v3.93h-7.54v2.7h8.66v4.25Z"/><path class="cls-2" d="M262.67,61.57V43.84h4.86l5.64,9.87V43.86h4.53V61.6h-4.86L267.2,52v9.53Z"/><path class="cls-2" d="M279.57,53a12.52,12.52,0,0,1,1-5.4,6.15,6.15,0,0,1,3-3,11.45,11.45,0,0,1,5-1c.62,0,1.19,0,1.71,0s1,.08,1.43.15.86.15,1.29.25.84.22,1.26.36l-1,4.07c-.52-.13-1-.24-1.49-.33s-.94-.14-1.38-.17-.9-.05-1.36-.05a6,6,0,0,0-1.91.26,2.81,2.81,0,0,0-1.28.85,3.61,3.61,0,0,0-.69,1.53,11.1,11.1,0,0,0-.22,2.37,9.54,9.54,0,0,0,.21,2.17,2.92,2.92,0,0,0,.69,1.41,3,3,0,0,0,1.28.76,6.44,6.44,0,0,0,1.87.24,16.26,16.26,0,0,0,2.33-.18c.83-.12,1.59-.25,2.28-.41l.93,4-1.32.38c-.45.11-.92.21-1.42.29s-1.05.13-1.65.17-1.26.07-2,.07a12.54,12.54,0,0,1-3.72-.5,6.32,6.32,0,0,1-2.66-1.53,6.22,6.22,0,0,1-1.58-2.73A14,14,0,0,1,279.57,53Z"/><path class="cls-2" d="M296.27,61.57V43.86h5.14V61.57Z"/><path class="cls-2" d="M302.77,61.57l5.47-17.76h6.22L320,61.57h-5.67l-.71-2.75h-4.78l-.71,2.75Zm7-7h2.94l-1.44-6.93Z"/><path class="cls-2" d="M331.9,61.57V55.78l-6-11.92h5.82l2.81,8.78,2.8-8.78h5.75l-6,11.92v5.79Z"/><path class="cls-3" d="M192.17,44.35c-15.94-9.1-31.87,10.9-47.8.59.33-3.3,1-9.93,1-9.93A18.31,18.31,0,0,0,155,37.45c12.72-.18,25.43-11.26,38.15-3C192.82,37.71,192.49,41,192.17,44.35Z"/><path class="cls-4" d="M193.76,53.37c-15.93-9.1-31.86,10.9-47.8.59.33-3.3.65-6.61,1-9.93,15.93,9.1,31.86-10.91,47.79-.59C194.41,46.73,194.08,50,193.76,53.37Z"/><path class="cls-5" d="M195.35,62.39c-15.93-9.1-31.86,10.9-47.79.59.32-3.3.65-6.61,1-9.93,15.93,9.1,31.87-10.91,47.8-.59C196,55.75,195.68,59.06,195.35,62.39Z"/><polygon class="cls-2" points="167.79 45.17 168.29 45.8 169.09 45.45 168.6 46.2 169.1 46.83 168.3 46.66 167.81 47.4 167.81 46.55 167.01 46.38 167.8 46.02 167.79 45.17"/><polygon class="cls-2" points="164.96 47.08 165.66 47.46 166.31 46.86 166.1 47.7 166.8 48.09 165.96 48.23 165.75 49.07 165.45 48.31 164.62 48.45 165.26 47.84 164.96 47.08"/><polygon class="cls-2" points="162.88 49.78 163.69 49.88 164.12 49.1 164.19 49.95 165 50.05 164.24 50.47 164.32 51.31 163.77 50.73 163.01 51.15 163.43 50.37 162.88 49.78"/><polygon class="cls-2" points="161.76 53.01 162.57 52.8 162.7 51.94 163.08 52.66 163.9 52.44 163.31 53.11 163.69 53.83 162.95 53.52 162.37 54.19 162.5 53.33 161.76 53.01"/><polygon class="cls-2" points="170.93 44.32 170.68 45.16 169.84 45.25 170.53 45.67 170.28 46.51 170.95 45.94 171.63 46.36 171.36 45.58 172.04 45.01 171.2 45.1 170.93 44.32"/><polygon class="cls-2" points="174.13 44.59 173.62 45.3 172.83 45.08 173.3 45.75 172.78 46.46 173.59 46.16 174.06 46.82 174.09 45.97 174.89 45.66 174.1 45.44 174.13 44.59"/><polygon class="cls-2" points="176.9 45.98 176.2 46.49 175.56 46 175.76 46.81 175.05 47.32 175.88 47.31 176.09 48.12 176.4 47.3 177.23 47.29 176.59 46.79 176.9 45.98"/><polygon class="cls-2" points="178.98 48.34 178.16 48.56 177.76 47.84 177.66 48.7 176.84 48.93 177.59 49.23 177.48 50.09 178.05 49.42 178.8 49.73 178.41 49.01 178.98 48.34"/><path class="cls-2" d="M146.61,73.77a.67.67,0,0,1-.24,0,.82.82,0,0,1-.24-.1,1.5,1.5,0,0,1-.23-.17,2.21,2.21,0,0,1-.25-.27,3.55,3.55,0,0,1-.27-.35H145v.89h-.65V71.05h.41l.35,0h.29a2.76,2.76,0,0,1,.54,0,1,1,0,0,1,.37.15.53.53,0,0,1,.21.26,1,1,0,0,1,.07.37,1.15,1.15,0,0,1-.07.4.86.86,0,0,1-.2.26,1.08,1.08,0,0,1-.3.16,2,2,0,0,0,.18.21l.17.15.15.09.14,0h.06v.62h-.15Zm-1.19-1.41a.79.79,0,0,0,.23,0,.44.44,0,0,0,.17-.07.3.3,0,0,0,.09-.13.46.46,0,0,0,0-.21.54.54,0,0,0,0-.24.32.32,0,0,0-.15-.13,1.21,1.21,0,0,0-.3,0H145v.83h.39Z"/><path class="cls-2" d="M147,73.73V71.05H149v.55h-1.27v.51h1.17v.52h-1.17v.56H149v.54Z"/><path class="cls-2" d="M149.34,73.73V71h1a2.52,2.52,0,0,1,.6.06.75.75,0,0,1,.37.17.67.67,0,0,1,.19.3,1.44,1.44,0,0,1,.06.45,1.53,1.53,0,0,1-.06.45.63.63,0,0,1-.17.31.67.67,0,0,1-.33.19,1.73,1.73,0,0,1-.49.06H150v.75Zm.65-2.19v.93h.36l.3,0a.38.38,0,0,0,.18-.09.42.42,0,0,0,.09-.16,1.69,1.69,0,0,0,0-.25,1,1,0,0,0,0-.19.32.32,0,0,0-.08-.14.36.36,0,0,0-.15-.08,1,1,0,0,0-.26,0H150Z"/><path class="cls-2" d="M151.86,72.86V71.05h.64v1.82a.37.37,0,0,0,0,.15.26.26,0,0,0,.07.11l.1.07.14,0H153l.17,0a.33.33,0,0,0,.13,0l.1-.07a.3.3,0,0,0,.07-.11.59.59,0,0,0,0-.14V71.05h.64v1.81a1,1,0,0,1-.05.35.67.67,0,0,1-.37.43,1.89,1.89,0,0,1-.31.1,2.5,2.5,0,0,1-.4,0,2.38,2.38,0,0,1-.39,0,2.26,2.26,0,0,1-.31-.1.81.81,0,0,1-.23-.17.68.68,0,0,1-.15-.26A1.23,1.23,0,0,1,151.86,72.86Zm.9-2,.33-.71h.61l-.47.71Z"/><path class="cls-2" d="M154.51,73.72V71.06l.41,0,.35,0h.29a2.5,2.5,0,0,1,.61.07.67.67,0,0,1,.33.21.65.65,0,0,1-.29,1h0a.73.73,0,0,1,.4.25.69.69,0,0,1,.13.43,1.08,1.08,0,0,1-.06.38.55.55,0,0,1-.2.25.85.85,0,0,1-.36.14,2.79,2.79,0,0,1-.55,0h-.76Zm.66-1.57h.52a.41.41,0,0,0,.16,0A.38.38,0,0,0,156,72a.42.42,0,0,0,0-.16.36.36,0,0,0-.05-.19.26.26,0,0,0-.14-.1.91.91,0,0,0-.27,0h-.37Zm0,1.08h.37a1.34,1.34,0,0,0,.33,0,.26.26,0,0,0,.16-.1.39.39,0,0,0,.05-.2.29.29,0,0,0-.1-.23.42.42,0,0,0-.3-.08h-.51Z"/><path class="cls-2" d="M157,73.73V71.05h.65v2.12h1.2v.56Z"/><path class="cls-2" d="M159.17,73.73V71.05h.65v2.68Z"/><path class="cls-2" d="M160.14,72.43a2.09,2.09,0,0,1,.14-.82,1,1,0,0,1,.44-.45,1.55,1.55,0,0,1,.73-.15h.23l.21,0,.19,0,.19,0-.13.52a1.06,1.06,0,0,0-.23-.05l-.21,0h-.2a1,1,0,0,0-.32,0,.46.46,0,0,0-.21.14.68.68,0,0,0-.13.27,1.62,1.62,0,0,0,0,.41,1.35,1.35,0,0,0,0,.37.45.45,0,0,0,.12.25.54.54,0,0,0,.22.13.93.93,0,0,0,.31,0l.36,0,.35-.07.11.5-.19.06-.22,0a.88.88,0,0,1-.24,0h-.28a2.08,2.08,0,0,1-.54-.07.92.92,0,0,1-.62-.65A2.17,2.17,0,0,1,160.14,72.43Z"/><path class="cls-2" d="M162.43,73.73l.84-2.69h.78l.86,2.69h-.7l-.15-.5h-.81l-.15.5Zm.94-1h.57l-.29-1.16Z"/><path class="cls-2" d="M166.12,73.72V71.06l.41,0,.35,0h.29a2.35,2.35,0,0,1,.6.07.59.59,0,0,1,.33.21.64.64,0,0,1-.28,1h0a.67.67,0,0,1,.39.25.64.64,0,0,1,.14.43,1.08,1.08,0,0,1-.06.38.62.62,0,0,1-.2.25.85.85,0,0,1-.36.14,2.79,2.79,0,0,1-.55,0h-.76Zm.66-1.57h.52a.41.41,0,0,0,.16,0l.11-.11a.41.41,0,0,0,0-.16.36.36,0,0,0,0-.19.3.3,0,0,0-.14-.1.91.91,0,0,0-.27,0h-.37Zm0,1.08h.37a1.34,1.34,0,0,0,.33,0,.26.26,0,0,0,.16-.1.4.4,0,0,0,0-.2.29.29,0,0,0-.09-.23.42.42,0,0,0-.3-.08h-.51Z"/><path class="cls-2" d="M169.76,73.77a1.88,1.88,0,0,1-.43,0,1.16,1.16,0,0,1-.34-.14.89.89,0,0,1-.25-.26,1.38,1.38,0,0,1-.16-.39,2.76,2.76,0,0,1-.05-.54,2.84,2.84,0,0,1,.05-.54,1,1,0,0,1,.15-.38.78.78,0,0,1,.25-.26,1,1,0,0,1,.34-.15,2,2,0,0,1,.44,0,2,2,0,0,1,.43,0,1.16,1.16,0,0,1,.34.14.89.89,0,0,1,.25.26,1.76,1.76,0,0,1,.15.39,2.73,2.73,0,0,1,0,.53,2.76,2.76,0,0,1,0,.54,1.34,1.34,0,0,1-.16.4.88.88,0,0,1-.25.26,1.05,1.05,0,0,1-.34.14A1.86,1.86,0,0,1,169.76,73.77Zm0-.51a.63.63,0,0,0,.19,0,.28.28,0,0,0,.15-.08.48.48,0,0,0,.12-.16,1.23,1.23,0,0,0,.08-.25,3.49,3.49,0,0,0,0-.35,3.32,3.32,0,0,0,0-.35,1.23,1.23,0,0,0-.08-.25.4.4,0,0,0-.12-.16.28.28,0,0,0-.15-.08.58.58,0,0,0-.19,0,.54.54,0,0,0-.19,0,.35.35,0,0,0-.16.08.36.36,0,0,0-.12.15,1.34,1.34,0,0,0-.08.26,3.49,3.49,0,0,0,0,.35,1.69,1.69,0,0,0,0,.35.75.75,0,0,0,.07.25.4.4,0,0,0,.12.16.31.31,0,0,0,.15.08A.64.64,0,0,0,169.76,73.26Z"/><path class="cls-2" d="M171.31,73.73V71.05H172v2.12h1.2v.56Z"/><path class="cls-2" d="M173.44,73.73V71.05h.65v2.68Z"/><path class="cls-2" d="M175.17,73.73l-.88-2.67H175l.54,2.11.53-2.11h.71l-.86,2.67Z"/><path class="cls-2" d="M176.56,73.73l.85-2.69h.78l.86,2.69h-.71l-.15-.5h-.81l-.15.5Zm.94-1h.58l-.29-1.16Z"/><path class="cls-2" d="M181.51,73.77a.67.67,0,0,1-.24,0,.77.77,0,0,1-.23-.1,1.18,1.18,0,0,1-.24-.17,3.45,3.45,0,0,1-.25-.27l-.26-.35h-.36v.89h-.65V71.05h.42l.34,0h.3a2.76,2.76,0,0,1,.54,0,.85.85,0,0,1,.36.15.62.62,0,0,1,.22.26,1,1,0,0,1,.06.37,1,1,0,0,1-.07.4.73.73,0,0,1-.2.26.86.86,0,0,1-.3.16l.19.21a1.14,1.14,0,0,0,.17.15.6.6,0,0,0,.15.09.35.35,0,0,0,.14,0h.06v.62h-.15Zm-1.18-1.41a.82.82,0,0,0,.23,0,.34.34,0,0,0,.16-.07.26.26,0,0,0,.1-.13.66.66,0,0,0,0-.21.55.55,0,0,0,0-.24.35.35,0,0,0-.16-.13,1.08,1.08,0,0,0-.3,0h-.42v.83h.4Z"/><path class="cls-2" d="M182,73.73V71.05h.65v2.68Z"/><path class="cls-2" d="M182.83,73.73l.85-2.69h.78l.86,2.69h-.71l-.14-.5h-.82l-.14.5Zm.94-1h.58l-.29-1.16Z"/><path class="cls-2" d="M185.55,73.73V71.05h.62l1,1.69V71.05h.57v2.68h-.61l-1-1.65v1.65Z"/><path class="cls-2" d="M188,73.73l.85-2.69h.78l.86,2.69h-.71l-.14-.5h-.82l-.14.5Zm.94-1h.58l-.29-1.16Z"/><path class="cls-2" d="M192.72,73.77h-1V71.05l.34,0h.66a1.7,1.7,0,0,1,.77.15.86.86,0,0,1,.42.44,2,2,0,0,1,.13.79,1.91,1.91,0,0,1-.14.78.9.9,0,0,1-.43.45A1.54,1.54,0,0,1,192.72,73.77Zm.05-.51a.5.5,0,0,0,.31-.09.52.52,0,0,0,.2-.27,1.78,1.78,0,0,0,.06-.51,1.73,1.73,0,0,0-.06-.51.47.47,0,0,0-.19-.27.58.58,0,0,0-.33-.08h-.42v1.7h.43Z"/><path class="cls-2" d="M194.33,73.73V71.05h1.92v.55H195v.51h1.18v.52H195v.56h1.35v.54Z"/><path class="cls-2" d="M146.47,83.63l-2.1-6.4h1.72l1.29,5.06,1.28-5.06h1.7l-2.06,6.4Z"/><path class="cls-2" d="M150.87,83.63V77.22h4.59v1.32h-3.05v1.21h2.81V81h-2.81v1.33h3.23v1.3Z"/><path class="cls-2" d="M156.36,83.63V77.21h1.47l2.42,4v-4h1.38v6.42h-1.46l-2.43-4v3.94Z"/><path class="cls-2" d="M162.63,83.63V77.22h4.6v1.32h-3v1.21H167V81h-2.81v1.33h3.23v1.3Z"/><path class="cls-2" d="M167.87,83.63V82.4l3.21-3.9v0h-3V77.22h4.89v1.23l-3.15,3.91v0h3.33v1.25Z"/><path class="cls-2" d="M173.71,81.56V77.22h1.53v4.35a1,1,0,0,0,.06.36.76.76,0,0,0,.16.26,1.56,1.56,0,0,0,.25.17,1.59,1.59,0,0,0,.33.09,2.22,2.22,0,0,0,.37,0,2.38,2.38,0,0,0,.39,0,1.5,1.5,0,0,0,.32-.1,1,1,0,0,0,.24-.17.68.68,0,0,0,.16-.26,1,1,0,0,0,.06-.35V77.22h1.54v4.34a2.57,2.57,0,0,1-.12.82,1.86,1.86,0,0,1-.35.62,1.58,1.58,0,0,1-.54.41,2.71,2.71,0,0,1-.76.24,5.44,5.44,0,0,1-.95.08,5.37,5.37,0,0,1-.93-.08,2.75,2.75,0,0,1-.75-.24,1.62,1.62,0,0,1-.55-.41,1.57,1.57,0,0,1-.35-.62A2.91,2.91,0,0,1,173.71,81.56Z"/><path class="cls-2" d="M180.05,83.63V77.22h4.6v1.32H181.6v1.21h2.81V81H181.6v1.33h3.23v1.3Z"/><path class="cls-2" d="M185.55,83.63V77.22h1.56v5.07H190v1.34Z"/><path class="cls-2" d="M190.3,83.63l2-6.43h1.87l2.06,6.43h-1.7l-.35-1.19h-2l-.35,1.19Zm2.25-2.46h1.38l-.7-2.77Z"/><line class="cls-6" x1="209.48" y1="31.38" x2="209.48" y2="83.63"/><path class="cls-2" d="M237.92,69.36h-5.09V82.54h-5.16V69.36h-5.13V64.83h15.38Z"/><path class="cls-2" d="M239.62,82.54V64.83h13.31v4.28h-8.2v2.55h7.54v3.92h-7.54v2.71h8.65v4.25Z"/><path class="cls-2" d="M254.34,73.94a12.52,12.52,0,0,1,1-5.4,6.15,6.15,0,0,1,3-3,11.34,11.34,0,0,1,5-1c.62,0,1.19,0,1.71,0s1,.08,1.43.15.87.15,1.29.25.84.22,1.26.36l-1,4.07c-.52-.13-1-.24-1.49-.33s-.93-.14-1.38-.18-.9,0-1.35,0a5.94,5.94,0,0,0-1.91.27,2.71,2.71,0,0,0-1.28.85,3.62,3.62,0,0,0-.7,1.53,11.14,11.14,0,0,0-.21,2.36,9.69,9.69,0,0,0,.2,2.18,2.93,2.93,0,0,0,.69,1.4,2.88,2.88,0,0,0,1.28.76,6.51,6.51,0,0,0,1.88.24,17.61,17.61,0,0,0,2.32-.17c.83-.12,1.59-.26,2.28-.41l.94,4c-.44.14-.88.27-1.33.38a14.2,14.2,0,0,1-1.42.3c-.5.07-1,.13-1.64.17s-1.26.07-2,.07a12.54,12.54,0,0,1-3.72-.5,6.54,6.54,0,0,1-2.66-1.53A6.32,6.32,0,0,1,254.86,78,14.35,14.35,0,0,1,254.34,73.94Z"/><path class="cls-2" d="M271,82.54V64.8h4.86l5.64,9.87V64.83h4.53V82.57h-4.85L275.57,73v9.54Z"/><path class="cls-2" d="M296.27,82.8a13.11,13.11,0,0,1-2.93-.31,7.07,7.07,0,0,1-2.33-1,5.51,5.51,0,0,1-1.68-1.75,8.65,8.65,0,0,1-1-2.58,14.57,14.57,0,0,1-.37-3.5,15.5,15.5,0,0,1,.34-3.47,8.56,8.56,0,0,1,1-2.57,5.77,5.77,0,0,1,1.67-1.77,6.8,6.8,0,0,1,2.33-1,13.63,13.63,0,0,1,3-.3,13.82,13.82,0,0,1,3,.3,6.47,6.47,0,0,1,2.33,1,5.55,5.55,0,0,1,1.63,1.74,8.7,8.7,0,0,1,1,2.55,15.25,15.25,0,0,1,.34,3.45,16.42,16.42,0,0,1-.34,3.56,8.39,8.39,0,0,1-1,2.59,6.07,6.07,0,0,1-1.67,1.75,6.8,6.8,0,0,1-2.33,1A13.42,13.42,0,0,1,296.27,82.8Zm0-4a4.13,4.13,0,0,0,1.1-.14,1.82,1.82,0,0,0,.85-.51,3.05,3.05,0,0,0,.61-.95,5.2,5.2,0,0,0,.36-1.45,15.14,15.14,0,0,0,.12-2,15.35,15.35,0,0,0-.12-2,5,5,0,0,0-.36-1.44,2.89,2.89,0,0,0-.61-.92,2,2,0,0,0-.85-.51,3.75,3.75,0,0,0-1.1-.15,3.8,3.8,0,0,0-1.1.15,2.12,2.12,0,0,0-.86.5,2.7,2.7,0,0,0-.62.92,5.55,5.55,0,0,0-.37,1.45,19.63,19.63,0,0,0,0,4.15,5.53,5.53,0,0,0,.37,1.46,2.53,2.53,0,0,0,.63.91,2.27,2.27,0,0,0,.88.47A4,4,0,0,0,296.27,78.75Z"/><path class="cls-2" d="M306.42,82.54V64.83h5.16V78.06h7.69v4.48Z"/><path class="cls-2" d="M328.38,82.8a13.11,13.11,0,0,1-2.93-.31,7.07,7.07,0,0,1-2.33-1,5.51,5.51,0,0,1-1.68-1.75,8.65,8.65,0,0,1-1-2.58,14.57,14.57,0,0,1-.37-3.5,16.11,16.11,0,0,1,.34-3.47,8.56,8.56,0,0,1,1-2.57A5.77,5.77,0,0,1,323,65.88a6.8,6.8,0,0,1,2.33-1,15.25,15.25,0,0,1,6,0,6.47,6.47,0,0,1,2.33,1,5.55,5.55,0,0,1,1.63,1.74,8.7,8.7,0,0,1,1,2.55,15.25,15.25,0,0,1,.34,3.45,16.42,16.42,0,0,1-.34,3.56,8.15,8.15,0,0,1-1,2.59,6.07,6.07,0,0,1-1.67,1.75,6.8,6.8,0,0,1-2.33,1A13.42,13.42,0,0,1,328.38,82.8Zm0-4a4.13,4.13,0,0,0,1.1-.14,1.82,1.82,0,0,0,.85-.51,3.05,3.05,0,0,0,.61-.95,5.55,5.55,0,0,0,.37-1.45,17.17,17.17,0,0,0,.11-2,17.42,17.42,0,0,0-.11-2,5.37,5.37,0,0,0-.37-1.44,2.89,2.89,0,0,0-.61-.92,2,2,0,0,0-.85-.51,3.75,3.75,0,0,0-1.1-.15,3.8,3.8,0,0,0-1.1.15,2.19,2.19,0,0,0-.86.5,2.7,2.7,0,0,0-.62.92,5.55,5.55,0,0,0-.37,1.45,19.63,19.63,0,0,0,0,4.15,5.53,5.53,0,0,0,.37,1.46,2.53,2.53,0,0,0,.63.91,2.27,2.27,0,0,0,.88.47A4,4,0,0,0,328.38,78.75Z"/><path class="cls-2" d="M337.92,73.91a12.39,12.39,0,0,1,1-5.22,6.42,6.42,0,0,1,2.95-3.09,10.83,10.83,0,0,1,5-1c.59,0,1.15,0,1.67,0s1,.08,1.52.15,1,.15,1.43.25.92.22,1.36.36l-.94,4.07c-.79-.17-1.59-.31-2.39-.42a16.13,16.13,0,0,0-2.19-.16,4.74,4.74,0,0,0-2.38.53,3.06,3.06,0,0,0-1.33,1.66,8.48,8.48,0,0,0-.42,2.92,8.6,8.6,0,0,0,.38,2.82,2.69,2.69,0,0,0,1.17,1.49,3.85,3.85,0,0,0,1.95.45,9.07,9.07,0,0,0,1.21-.07,5.28,5.28,0,0,0,1-.19V76.14h-2.56v-4h7.16v9.14A13.64,13.64,0,0,1,350,82.44a21.12,21.12,0,0,1-4,.36,9.44,9.44,0,0,1-4.53-1,5.93,5.93,0,0,1-2.66-2.92A12.21,12.21,0,0,1,337.92,73.91Z"/><path class="cls-2" d="M355.58,82.54V64.83h5.14V82.54Zm.69-18.82,2-4.84h4.88L360,63.72Z"/><path class="cls-2" d="M362.09,82.54l5.46-17.76h6.23l5.54,17.76h-5.67l-.71-2.76h-4.78l-.71,2.76Zm7-7H372l-1.44-6.93Z"/><path class="cls-2" d="M222.62,39.53V32.1h1.22l2.2,3.72,2.21-3.72h1.15v7.43h-1.08V33.91l-2,3.38h-.56l-2-3.37v5.61Z"/><path class="cls-2" d="M231.27,32.83a.83.83,0,0,1-.53-.13.59.59,0,0,1-.16-.47.57.57,0,0,1,.16-.46.76.76,0,0,1,.53-.15.75.75,0,0,1,.53.15.57.57,0,0,1,.16.46.59.59,0,0,1-.16.47A.81.81,0,0,1,231.27,32.83Zm-.58,6.7V33.81h1.15v5.72Z"/><path class="cls-2" d="M233.05,39.53V33.81h1v.5a6,6,0,0,1,.68-.33,4.75,4.75,0,0,1,.64-.2,3,3,0,0,1,.68-.08,2,2,0,0,1,.9.19,1.2,1.2,0,0,1,.54.55,1.88,1.88,0,0,1,.18.86v4.23h-1.14V35.64a.85.85,0,0,0-1-1,2.61,2.61,0,0,0-.48,0,4.11,4.11,0,0,0-.46.15,5,5,0,0,0-.48.21v4.44Z"/><path class="cls-2" d="M239.51,32.83a.84.84,0,0,1-.53-.13.63.63,0,0,1-.15-.47.61.61,0,0,1,.15-.46.78.78,0,0,1,.53-.15.79.79,0,0,1,.54.15.61.61,0,0,1,.15.46.63.63,0,0,1-.15.47A.86.86,0,0,1,239.51,32.83Zm-.58,6.7V33.81h1.16v5.72Z"/><path class="cls-2" d="M240.92,39.31l.16-.86.4.12.49.1a4.26,4.26,0,0,0,.5.06,4.18,4.18,0,0,0,.49,0,1.56,1.56,0,0,0,.87-.19.63.63,0,0,0,.28-.55.55.55,0,0,0-.1-.34.75.75,0,0,0-.28-.24,2.53,2.53,0,0,0-.46-.2,4,4,0,0,0-.65-.18,3.53,3.53,0,0,1-.65-.23,1.86,1.86,0,0,1-.5-.35,1.21,1.21,0,0,1-.31-.46,1.79,1.79,0,0,1-.1-.6,1.54,1.54,0,0,1,.56-1.27,2.63,2.63,0,0,1,1.64-.44,5.9,5.9,0,0,1,.63,0l.56.1a5.07,5.07,0,0,1,.5.14l-.16.87-.45-.12-.5-.08a5.09,5.09,0,0,0-.58,0,1.47,1.47,0,0,0-.81.18.61.61,0,0,0-.27.52.58.58,0,0,0,.09.33.8.8,0,0,0,.26.21A2.81,2.81,0,0,0,243,36l.55.16a4.9,4.9,0,0,1,.71.24,2.14,2.14,0,0,1,.56.31,1.26,1.26,0,0,1,.35.47,1.79,1.79,0,0,1,.12.7,1.93,1.93,0,0,1-.1.65,1.18,1.18,0,0,1-.33.49,2.11,2.11,0,0,1-.49.33,2.83,2.83,0,0,1-.64.19,4.35,4.35,0,0,1-.75.07c-.23,0-.47,0-.7,0s-.47-.06-.69-.11A5,5,0,0,1,240.92,39.31Z"/><path class="cls-2" d="M248,39.64a1.75,1.75,0,0,1-.89-.21,1.24,1.24,0,0,1-.53-.62,2.69,2.69,0,0,1-.18-1.06V34.66h-.92v-.75l.92-.1.15-1.3h1v1.3h1.76v.86h-1.76v3a1.13,1.13,0,0,0,.2.77.83.83,0,0,0,.65.23,2.53,2.53,0,0,0,.46,0l.49-.12.16.88a5.29,5.29,0,0,1-.79.19A4.61,4.61,0,0,1,248,39.64Z"/><path class="cls-2" d="M252.38,39.64a3.28,3.28,0,0,1-1.09-.17,2.09,2.09,0,0,1-.81-.5,2.16,2.16,0,0,1-.5-.88,4,4,0,0,1-.17-1.27,4.77,4.77,0,0,1,.2-1.46,2.44,2.44,0,0,1,.58-1,2.16,2.16,0,0,1,.86-.52,3.29,3.29,0,0,1,1.07-.17,2.2,2.2,0,0,1,1.7.6,2.77,2.77,0,0,1,.55,1.93v.21c0,.09,0,.18,0,.26l-.62,0-.87.07-1.06.06-1.19,0a.29.29,0,0,0,0,.09v.1a2.1,2.1,0,0,0,.18.94,1.18,1.18,0,0,0,.54.52,2,2,0,0,0,.88.16,5.07,5.07,0,0,0,.66,0c.23,0,.46-.05.68-.09s.43-.08.62-.13l.15.86c-.21.06-.44.12-.69.17s-.51.08-.77.11A7.66,7.66,0,0,1,252.38,39.64ZM251,36.12h.84l.76,0,.6,0,.38,0a2.49,2.49,0,0,0-.13-.85.88.88,0,0,0-.39-.47,1.35,1.35,0,0,0-.64-.14,1.55,1.55,0,0,0-.48.07,1,1,0,0,0-.43.24,1.46,1.46,0,0,0-.33.48A2.09,2.09,0,0,0,251,36.12Z"/><path class="cls-2" d="M256.77,33.81v.71a3.71,3.71,0,0,1,.57-.47,2.12,2.12,0,0,1,.55-.26,1.85,1.85,0,0,1,.58-.09l.4,0a2.59,2.59,0,0,1,.4.09l-.19,1-.39-.08a2.49,2.49,0,0,0-.37,0,2,2,0,0,0-.7.13,2.58,2.58,0,0,0-.76.47v4.16h-1.14V33.81Z"/><path class="cls-2" d="M260.49,32.83a.83.83,0,0,1-.53-.13.59.59,0,0,1-.16-.47.57.57,0,0,1,.16-.46,1,1,0,0,1,1.06,0,.57.57,0,0,1,.16.46.59.59,0,0,1-.16.47A.83.83,0,0,1,260.49,32.83Zm-.58,6.7V33.81h1.15v5.72Z"/><path class="cls-2" d="M262,36.66a5.51,5.51,0,0,1,.13-1.29,2.31,2.31,0,0,1,.43-.92,1.79,1.79,0,0,1,.8-.55,3.88,3.88,0,0,1,2.46,0,1.76,1.76,0,0,1,.79.55,2.18,2.18,0,0,1,.43.92,5.48,5.48,0,0,1,.14,1.29,5.1,5.1,0,0,1-.15,1.32,2.19,2.19,0,0,1-.45.93,1.86,1.86,0,0,1-.79.54,3.88,3.88,0,0,1-2.4,0,1.89,1.89,0,0,1-.8-.54,2.45,2.45,0,0,1-.45-.93A5.62,5.62,0,0,1,262,36.66Zm1.18,0a4.19,4.19,0,0,0,.14,1.24,1.15,1.15,0,0,0,.46.66,1.52,1.52,0,0,0,.81.19,1.46,1.46,0,0,0,.8-.19,1.09,1.09,0,0,0,.45-.66,4.14,4.14,0,0,0,.15-1.24,4.87,4.87,0,0,0-.13-1.22,1.13,1.13,0,0,0-.44-.65,1.52,1.52,0,0,0-.83-.19,1.58,1.58,0,0,0-.84.19,1.13,1.13,0,0,0-.44.65A4.45,4.45,0,0,0,263.21,36.66Z"/><path class="cls-2" d="M274.64,39.54l-.13-.49a4,4,0,0,1-.91.44,2.74,2.74,0,0,1-.9.15,1.62,1.62,0,0,1-1.42-.74,3.7,3.7,0,0,1-.51-2.11,4.52,4.52,0,0,1,.28-1.74,2,2,0,0,1,.87-1,3,3,0,0,1,1.47-.34l.54,0a3.05,3.05,0,0,1,.57.09V31.68h1.15v7.86Zm-.14-1.33V34.69a4.65,4.65,0,0,0-.55-.1l-.46,0a1.59,1.59,0,0,0-.86.21,1.14,1.14,0,0,0-.5.67A3.9,3.9,0,0,0,272,36.7a3.75,3.75,0,0,0,.14,1.09,1.26,1.26,0,0,0,.4.66,1,1,0,0,0,.63.21,2.15,2.15,0,0,0,.43,0,2.08,2.08,0,0,0,.44-.15A3.4,3.4,0,0,0,274.5,38.21Z"/><path class="cls-2" d="M279.2,39.64a3.3,3.3,0,0,1-1.1-.17,2.09,2.09,0,0,1-.81-.5,2.16,2.16,0,0,1-.5-.88,4,4,0,0,1-.17-1.27,4.77,4.77,0,0,1,.2-1.46,2.44,2.44,0,0,1,.58-1,2.16,2.16,0,0,1,.86-.52,3.33,3.33,0,0,1,1.07-.17,2.2,2.2,0,0,1,1.7.6,2.77,2.77,0,0,1,.55,1.93v.21c0,.09,0,.18,0,.26l-.62,0-.87.07-1.06.06-1.19,0a.28.28,0,0,0,0,.09v.1A2.1,2.1,0,0,0,278,38a1.11,1.11,0,0,0,.53.52,2,2,0,0,0,.88.16,5.07,5.07,0,0,0,.66,0c.23,0,.46-.05.68-.09s.43-.08.62-.13l.15.86c-.21.06-.44.12-.69.17s-.51.08-.77.11A7.62,7.62,0,0,1,279.2,39.64Zm-1.37-3.52h.85l.75,0,.6,0,.39,0a2.73,2.73,0,0,0-.14-.85.87.87,0,0,0-.38-.47,1.39,1.39,0,0,0-.65-.14,1.59,1.59,0,0,0-.48.07,1,1,0,0,0-.43.24,1.46,1.46,0,0,0-.33.48A2.09,2.09,0,0,0,277.83,36.12Z"/><path class="cls-2" d="M283.67,31.68v6.14a1.38,1.38,0,0,0,.08.52.39.39,0,0,0,.2.23.71.71,0,0,0,.28.06l.25,0,.27-.07.12.89a1.43,1.43,0,0,1-.44.15,2.22,2.22,0,0,1-.51.06,1.74,1.74,0,0,1-.76-.16,1,1,0,0,1-.47-.53,2.43,2.43,0,0,1-.17-1V31.68Z"/><path class="cls-2" d="M288.4,39.53V32.09l1.17-.06.84,0h.53a7.47,7.47,0,0,1,1.55.13,2.26,2.26,0,0,1,1,.44,1.68,1.68,0,0,1,.49.77,4.36,4.36,0,0,1,.14,1.17,4.3,4.3,0,0,1-.15,1.21,1.91,1.91,0,0,1-.49.82,2,2,0,0,1-.87.47,4.89,4.89,0,0,1-1.3.15h-.95l-.32,0h-.41v2.41ZM289.59,33v3.2h1.33a4.32,4.32,0,0,0,1-.09,1.1,1.1,0,0,0,.9-.83,3.09,3.09,0,0,0,.09-.8,2.33,2.33,0,0,0-.09-.7,1.06,1.06,0,0,0-.28-.47A1.23,1.23,0,0,0,292,33a3.88,3.88,0,0,0-.91-.09h-.57l-.37,0Z"/><path class="cls-2" d="M294.6,36.66a5.51,5.51,0,0,1,.13-1.29,2.31,2.31,0,0,1,.43-.92,1.85,1.85,0,0,1,.8-.55,3.88,3.88,0,0,1,2.46,0,1.85,1.85,0,0,1,.8.55,2.45,2.45,0,0,1,.43.92,6.11,6.11,0,0,1,.13,1.29,5.62,5.62,0,0,1-.14,1.32,2.32,2.32,0,0,1-.46.93,1.86,1.86,0,0,1-.79.54,3.28,3.28,0,0,1-1.2.19,3.19,3.19,0,0,1-1.19-.19,1.93,1.93,0,0,1-.81-.54,2.45,2.45,0,0,1-.45-.93A5.62,5.62,0,0,1,294.6,36.66Zm1.18,0a4.55,4.55,0,0,0,.14,1.24,1.15,1.15,0,0,0,.46.66,1.54,1.54,0,0,0,.81.19,1.52,1.52,0,0,0,.81-.19,1.18,1.18,0,0,0,.45-.66,4.55,4.55,0,0,0,.14-1.24,4.45,4.45,0,0,0-.13-1.22,1.13,1.13,0,0,0-.44-.65,1.52,1.52,0,0,0-.83-.19,1.55,1.55,0,0,0-.83.19,1.1,1.1,0,0,0-.45.65A4.45,4.45,0,0,0,295.78,36.66Z"/><path class="cls-2" d="M304.37,39.54l-.14-.49a3.72,3.72,0,0,1-.9.44,2.74,2.74,0,0,1-.9.15A1.65,1.65,0,0,1,301,38.9a3.78,3.78,0,0,1-.5-2.11,4.52,4.52,0,0,1,.28-1.74,2,2,0,0,1,.87-1,2.93,2.93,0,0,1,1.47-.34l.54,0a2.83,2.83,0,0,1,.56.09V31.68h1.16v7.86Zm-.15-1.33V34.69a4.18,4.18,0,0,0-.54-.1l-.46,0a1.59,1.59,0,0,0-.86.21,1.11,1.11,0,0,0-.5.67,3.9,3.9,0,0,0-.16,1.26,3.44,3.44,0,0,0,.14,1.09,1.32,1.32,0,0,0,.39.66,1,1,0,0,0,.64.21,2.15,2.15,0,0,0,.43,0,2.08,2.08,0,0,0,.44-.15A3.34,3.34,0,0,0,304.22,38.21Z"/><path class="cls-2" d="M308.92,39.64a3.28,3.28,0,0,1-1.09-.17A2.09,2.09,0,0,1,307,39a2.16,2.16,0,0,1-.5-.88,4,4,0,0,1-.17-1.27,4.48,4.48,0,0,1,.2-1.46,2.44,2.44,0,0,1,.58-1,2.2,2.2,0,0,1,.85-.52,3.4,3.4,0,0,1,1.08-.17,2.2,2.2,0,0,1,1.7.6,2.77,2.77,0,0,1,.55,1.93v.21c0,.09,0,.18,0,.26l-.62,0-.87.07-1.06.06-1.2,0s0,.06,0,.09v.1a2.1,2.1,0,0,0,.18.94,1.16,1.16,0,0,0,.53.52,2.12,2.12,0,0,0,.89.16,5.07,5.07,0,0,0,.66,0c.23,0,.45-.05.68-.09s.43-.08.62-.13l.15.86-.69.17c-.25.05-.51.08-.77.11A7.66,7.66,0,0,1,308.92,39.64Zm-1.36-3.52h.84l.76,0,.6,0,.38,0a2.49,2.49,0,0,0-.13-.85.88.88,0,0,0-.39-.47,1.35,1.35,0,0,0-.64-.14,1.55,1.55,0,0,0-.48.07,1,1,0,0,0-.43.24,1.46,1.46,0,0,0-.33.48A2.09,2.09,0,0,0,307.56,36.12Z"/><path class="cls-2" d="M313.31,33.81v.71a3.71,3.71,0,0,1,.57-.47,2.12,2.12,0,0,1,.55-.26,1.85,1.85,0,0,1,.58-.09l.4,0a2.59,2.59,0,0,1,.4.09l-.19,1-.39-.08a2.55,2.55,0,0,0-.38,0,2,2,0,0,0-.69.13,2.58,2.58,0,0,0-.76.47v4.16h-1.14V33.81Z"/><path class="cls-2" d="M319.39,39.53V32.09l1.16-.06.84,0h.53a7.47,7.47,0,0,1,1.55.13,2.26,2.26,0,0,1,1,.44,1.68,1.68,0,0,1,.49.77,4.36,4.36,0,0,1,.14,1.17,4.3,4.3,0,0,1-.15,1.21,1.91,1.91,0,0,1-.49.82,2,2,0,0,1-.87.47,4.89,4.89,0,0,1-1.3.15h-.95l-.32,0h-.41v2.41ZM320.57,33v3.2h1.33a4.26,4.26,0,0,0,1-.09,1.1,1.1,0,0,0,.9-.83,3.09,3.09,0,0,0,.09-.8,2.33,2.33,0,0,0-.09-.7,1.06,1.06,0,0,0-.28-.47,1.23,1.23,0,0,0-.56-.28,3.88,3.88,0,0,0-.91-.09h-.57l-.37,0Z"/><path class="cls-2" d="M325.58,36.66a6.11,6.11,0,0,1,.13-1.29,2.45,2.45,0,0,1,.43-.92,1.85,1.85,0,0,1,.8-.55,3.88,3.88,0,0,1,2.46,0,1.85,1.85,0,0,1,.8.55,2.45,2.45,0,0,1,.43.92,6.11,6.11,0,0,1,.13,1.29,5.62,5.62,0,0,1-.14,1.32,2.32,2.32,0,0,1-.46.93,1.86,1.86,0,0,1-.79.54,3.28,3.28,0,0,1-1.2.19,3.23,3.23,0,0,1-1.19-.19,1.83,1.83,0,0,1-.8-.54,2.32,2.32,0,0,1-.46-.93A5.62,5.62,0,0,1,325.58,36.66Zm1.18,0a4.55,4.55,0,0,0,.14,1.24,1.15,1.15,0,0,0,.46.66,1.54,1.54,0,0,0,.81.19,1.52,1.52,0,0,0,.81-.19,1.18,1.18,0,0,0,.45-.66,4.55,4.55,0,0,0,.14-1.24,4.45,4.45,0,0,0-.13-1.22,1.13,1.13,0,0,0-.44-.65,1.52,1.52,0,0,0-.83-.19,1.55,1.55,0,0,0-.83.19,1.1,1.1,0,0,0-.45.65A4.45,4.45,0,0,0,326.76,36.66Z"/><path class="cls-2" d="M331.72,41.76v-8h1l0,.54a3.94,3.94,0,0,1,.95-.46,2.92,2.92,0,0,1,.92-.16,1.64,1.64,0,0,1,1.43.74,3.79,3.79,0,0,1,.49,2.11,4.52,4.52,0,0,1-.28,1.74,2,2,0,0,1-.87,1,2.91,2.91,0,0,1-1.47.34,5.13,5.13,0,0,1-.52,0l-.58-.08v2.24Zm2.17-3a1.55,1.55,0,0,0,.85-.21,1.26,1.26,0,0,0,.51-.68,3.86,3.86,0,0,0,.17-1.26,3.8,3.8,0,0,0-.14-1.11,1.34,1.34,0,0,0-.4-.65,1,1,0,0,0-.64-.21,2.18,2.18,0,0,0-.44,0,2,2,0,0,0-.43.15,2.73,2.73,0,0,0-.49.27v3.52l.55.1A3.91,3.91,0,0,0,333.89,38.79Z"/><path class="cls-2" d="M339.16,39.64a1.74,1.74,0,0,1-.84-.19,1.3,1.3,0,0,1-.56-.53,1.8,1.8,0,0,1-.2-.89V33.81h1.15v4a.86.86,0,0,0,.23.66,1,1,0,0,0,.67.22,2.32,2.32,0,0,0,.46,0,2.08,2.08,0,0,0,.44-.15c.16-.06.31-.14.47-.21V33.81h1.13v4.31a.93.93,0,0,0,.05.32.47.47,0,0,0,.14.17.34.34,0,0,0,.17,0,.5.5,0,0,0,.27-.08l.11.84-.24.11-.28.08a1.66,1.66,0,0,1-.32,0,1,1,0,0,1-.55-.16.91.91,0,0,1-.36-.45,6,6,0,0,1-.61.32,3.69,3.69,0,0,1-.64.21A3.1,3.1,0,0,1,339.16,39.64Z"/><path class="cls-2" d="M344.66,31.68v6.14a1.41,1.41,0,0,0,.07.52.37.37,0,0,0,.21.23.67.67,0,0,0,.28.06l.24,0,.28-.07.12.89a1.52,1.52,0,0,1-.44.15,2.24,2.24,0,0,1-.52.06,1.67,1.67,0,0,1-.75-.16,1,1,0,0,1-.48-.53,2.59,2.59,0,0,1-.17-1V31.68Z"/><path class="cls-2" d="M346.16,38.1a1.61,1.61,0,0,1,.22-.86,1.54,1.54,0,0,1,.64-.53,4.55,4.55,0,0,1,1.05-.31c.42-.07.91-.13,1.48-.17v-.66a.77.77,0,0,0-.3-.66,1.53,1.53,0,0,0-.89-.22l-.49,0c-.18,0-.37,0-.57.08s-.39.08-.59.13L346.5,34a7.38,7.38,0,0,1,1-.23,6.51,6.51,0,0,1,.94-.08,3.34,3.34,0,0,1,1.29.21,1.51,1.51,0,0,1,.75.62,2,2,0,0,1,.25,1v2.53a.69.69,0,0,0,.1.44.3.3,0,0,0,.25.12l.13,0a.34.34,0,0,0,.14,0l.11.85a1.73,1.73,0,0,1-.37.16,1.56,1.56,0,0,1-.44.06,1,1,0,0,1-.64-.2,1,1,0,0,1-.33-.57,5.65,5.65,0,0,1-.57.38,2.37,2.37,0,0,1-.65.28,2.77,2.77,0,0,1-.78.11,1.64,1.64,0,0,1-.6-.11,1.12,1.12,0,0,1-.47-.3,1.21,1.21,0,0,1-.31-.48A1.67,1.67,0,0,1,346.16,38.1Zm1.18-.09a.87.87,0,0,0,.2.62.77.77,0,0,0,.54.2,1.88,1.88,0,0,0,.52-.08,2.62,2.62,0,0,0,.52-.22,1.65,1.65,0,0,0,.43-.35V36.89c-.33,0-.64.06-.91.1a3.51,3.51,0,0,0-.7.19,1,1,0,0,0-.45.33A.82.82,0,0,0,347.34,38Z"/><path class="cls-2" d="M353.16,33.81v.71a3.71,3.71,0,0,1,.57-.47,2.12,2.12,0,0,1,.55-.26,1.85,1.85,0,0,1,.58-.09l.4,0a2.59,2.59,0,0,1,.4.09l-.19,1-.39-.08a2.49,2.49,0,0,0-.37,0,2,2,0,0,0-.7.13,2.58,2.58,0,0,0-.76.47v4.16h-1.14V33.81Z"/><path class="cls-2" d="M359.14,41.76v-8h1.05l0,.54a4.12,4.12,0,0,1,.95-.46,3,3,0,0,1,.93-.16,1.61,1.61,0,0,1,1.42.74,3.78,3.78,0,0,1,.5,2.11,4.51,4.51,0,0,1-.29,1.74,2.05,2.05,0,0,1-.86,1,3,3,0,0,1-1.47.34,4.92,4.92,0,0,1-.52,0l-.58-.08v2.24Zm2.16-3a1.59,1.59,0,0,0,.86-.21,1.25,1.25,0,0,0,.5-.68,3.61,3.61,0,0,0,.17-1.26,3.49,3.49,0,0,0-.14-1.11,1.33,1.33,0,0,0-.39-.65,1,1,0,0,0-.65-.21,1.91,1.91,0,0,0-.87.19,2.68,2.68,0,0,0-.48.27v3.52l.54.1A4.09,4.09,0,0,0,361.3,38.79Z"/><path class="cls-2" d="M364.54,38.1a1.53,1.53,0,0,1,.22-.86,1.45,1.45,0,0,1,.63-.53,4.55,4.55,0,0,1,1.05-.31c.43-.07.92-.13,1.48-.17v-.66a.77.77,0,0,0-.29-.66,1.56,1.56,0,0,0-.89-.22l-.49,0c-.19,0-.37,0-.57.08s-.39.08-.6.13l-.2-.91a7.38,7.38,0,0,1,1-.23,6.51,6.51,0,0,1,.94-.08,3.41,3.41,0,0,1,1.29.21,1.6,1.6,0,0,1,.75.62,2,2,0,0,1,.24,1v2.53a.69.69,0,0,0,.1.44.32.32,0,0,0,.25.12l.13,0a.38.38,0,0,0,.15,0l.1.85a1.38,1.38,0,0,1-.37.16,1.49,1.49,0,0,1-.43.06.93.93,0,0,1-1-.77,5.5,5.5,0,0,1-.56.38,2.51,2.51,0,0,1-.65.28,2.77,2.77,0,0,1-.78.11,1.64,1.64,0,0,1-.6-.11,1.22,1.22,0,0,1-.48-.3,1.47,1.47,0,0,1-.31-.48A1.88,1.88,0,0,1,364.54,38.1Zm1.18-.09a.83.83,0,0,0,.2.62.73.73,0,0,0,.54.2,1.93,1.93,0,0,0,.52-.08,2.62,2.62,0,0,0,.52-.22,1.78,1.78,0,0,0,.42-.35V36.89l-.9.1a3.82,3.82,0,0,0-.71.19,1,1,0,0,0-.44.33A.82.82,0,0,0,365.72,38Z"/><path class="cls-2" d="M371.53,33.81v.71a5,5,0,0,1,.57-.47,2.12,2.12,0,0,1,.55-.26,1.92,1.92,0,0,1,.59-.09l.4,0a2.59,2.59,0,0,1,.4.09l-.2,1-.39-.08a2.42,2.42,0,0,0-.37,0,1.87,1.87,0,0,0-.69.13,2.58,2.58,0,0,0-.76.47v4.16h-1.15V33.81Z"/><path class="cls-2" d="M374.05,38.1a1.61,1.61,0,0,1,.21-.86,1.54,1.54,0,0,1,.64-.53A4.55,4.55,0,0,1,376,36.4c.42-.07.91-.13,1.48-.17v-.66a.77.77,0,0,0-.3-.66,1.51,1.51,0,0,0-.89-.22l-.49,0c-.18,0-.37,0-.56.08s-.4.08-.6.13l-.2-.91a7.23,7.23,0,0,1,1-.23,6.64,6.64,0,0,1,.95-.08,3.41,3.41,0,0,1,1.29.21,1.52,1.52,0,0,1,.74.62,1.93,1.93,0,0,1,.25,1v2.53a.69.69,0,0,0,.1.44.32.32,0,0,0,.25.12l.13,0a.34.34,0,0,0,.14,0l.11.85a1.53,1.53,0,0,1-.37.16,1.56,1.56,0,0,1-.44.06,1,1,0,0,1-.64-.2,1,1,0,0,1-.33-.57,5.65,5.65,0,0,1-.57.38,2.24,2.24,0,0,1-.65.28,2.72,2.72,0,0,1-.78.11,1.64,1.64,0,0,1-.6-.11,1.12,1.12,0,0,1-.47-.3,1.33,1.33,0,0,1-.31-.48A1.67,1.67,0,0,1,374.05,38.1Zm1.17-.09a.83.83,0,0,0,.21.62.73.73,0,0,0,.54.2,1.93,1.93,0,0,0,.52-.08,2.81,2.81,0,0,0,.51-.22,1.65,1.65,0,0,0,.43-.35V36.89l-.91.1a3.7,3.7,0,0,0-.7.19,1,1,0,0,0-.45.33A.82.82,0,0,0,375.22,38Z"/></g></g></svg>